<?xml version="1.0" standalone="no"?>
<!DOCTYPE svg PUBLIC "-//W3C//DTD SVG 20010904//EN"
 "http://www.w3.org/TR/2001/REC-SVG-20010904/DTD/svg10.dtd">
<svg version="1.0" xmlns="http://www.w3.org/2000/svg"
 width="4500.000000pt" height="4500.000000pt" viewBox="0 0 4500.000000 4500.000000"
 preserveAspectRatio="xMidYMid meet">

<g transform="translate(0.000000,4500.000000) scale(0.100000,-0.100000)"
fill="#000000" stroke="none">
<path d="M9387 29690 c-258 -32 -508 -210 -631 -450 -68 -134 -107 -262 -121
-403 -4 -37 -10 -66 -14 -65 -3 2 -69 34 -146 72 -936 454 -1645 538 -2058
242 -204 -145 -336 -374 -387 -671 -53 -309 -29 -563 76 -784 166 -352 520
-567 1029 -622 116 -12 334 -9 715 12 281 16 1017 16 1210 1 609 -49 1067
-149 1494 -329 1220 -514 2097 -1578 2366 -2872 80 -380 91 -653 66 -1525 -9
-302 -15 -550 -13 -552 3 -3 462 1128 503 1241 302 840 475 1974 435 2842 -29
620 -114 1100 -286 1618 -210 636 -493 1027 -880 1216 -154 75 -269 102 -440
102 -193 0 -326 -32 -484 -119 -137 -75 -283 -214 -355 -338 -21 -37 -42 -65
-46 -64 -4 2 -58 66 -120 143 -735 913 -1401 1368 -1913 1305z m287 -457 c305
-96 693 -415 1143 -942 223 -260 565 -716 620 -826 14 -27 50 -83 80 -123 l54
-73 32 24 c218 163 307 232 307 239 0 5 -27 48 -59 97 -73 108 -84 144 -80
252 4 74 9 95 41 160 108 217 363 338 601 285 421 -94 764 -654 950 -1551 79
-380 107 -644 114 -1080 8 -460 -15 -802 -83 -1233 -27 -174 -71 -412 -77
-418 -2 -3 -14 35 -27 83 -134 514 -391 1061 -697 1481 -414 568 -971 1040
-1595 1353 -771 387 -1598 532 -2837 498 -190 -5 -425 -14 -521 -19 -96 -5
-233 -10 -304 -10 -477 -1 -800 179 -881 490 -65 252 9 623 155 769 235 235
767 177 1540 -169 293 -130 714 -364 877 -486 50 -38 127 -88 171 -111 l79
-43 101 173 c55 95 103 179 107 187 4 11 -32 40 -126 100 -167 109 -180 119
-225 187 -74 111 -91 225 -54 367 48 191 170 326 327 366 57 14 175 2 267 -27z"/>
<path d="M27607 27563 c-12 -21 -135 -227 -273 -458 l-252 -420 246 -3 c136
-1 252 0 258 2 8 3 603 733 737 904 7 9 -62 12 -342 12 l-352 0 -22 -37z"/>
<path d="M17890 27504 c-19 -2 -80 -9 -135 -15 -643 -69 -1175 -389 -1485
-894 -69 -112 -165 -320 -208 -451 -202 -612 -186 -1411 40 -1979 237 -595
666 -987 1271 -1160 236 -67 425 -90 732 -89 427 0 732 65 1060 224 543 263
870 715 935 1295 5 50 10 109 10 133 l0 42 -327 -2 -327 -3 -18 -101 c-47
-271 -163 -498 -341 -671 -177 -172 -386 -273 -676 -325 -167 -30 -486 -30
-655 1 -522 94 -868 398 -1036 910 -81 247 -105 429 -105 791 0 362 24 544
105 791 143 435 414 721 814 854 175 59 309 78 551 78 171 0 232 -4 329 -22
537 -96 884 -416 1006 -925 11 -45 20 -93 20 -108 l0 -28 330 0 330 0 0 44 c0
25 -7 96 -15 158 -101 769 -727 1314 -1650 1438 -82 11 -492 21 -555 14z"/>
<path d="M24915 27465 c-128 -18 -208 -40 -305 -87 -120 -57 -230 -168 -288
-288 -78 -163 -102 -314 -102 -647 l0 -223 -265 0 -265 0 0 -240 0 -240 265 0
265 0 0 -1385 0 -1385 335 0 335 0 0 1385 0 1385 375 0 375 0 0 240 0 240
-376 0 -375 0 3 258 c3 218 6 265 22 307 40 109 110 171 227 201 54 14 97 16
282 10 l217 -6 0 229 0 228 -67 7 c-297 28 -513 32 -658 11z"/>
<path d="M7595 26734 c-449 -32 -855 -123 -1255 -281 -1191 -471 -2093 -1468
-2440 -2694 -41 -146 -136 -587 -127 -595 2 -3 98 11 213 30 855 143 1553 150
2324 25 595 -96 1020 -228 1880 -582 757 -311 1133 -446 1480 -531 702 -172
1290 -155 1935 59 346 114 665 272 1038 513 l119 77 -7 110 c-46 810 -324
1578 -802 2219 -318 426 -738 806 -1188 1075 -432 258 -922 441 -1397 520
-309 52 -334 53 -1048 56 -371 1 -697 1 -725 -1z m1475 -418 c861 -104 1603
-460 2201 -1056 574 -573 931 -1282 1048 -2085 33 -225 42 -201 -101 -286
-426 -253 -880 -419 -1303 -474 -556 -72 -1123 25 -1913 330 -95 36 -353 140
-572 230 -498 204 -690 279 -950 366 -208 71 -526 162 -678 194 l-84 18 6 231
c4 127 16 717 27 1311 11 593 22 1081 24 1083 8 8 225 63 343 87 319 65 476
74 1217 70 478 -2 627 -6 735 -19z m-2654 -698 c-3 -238 -9 -539 -13 -669 l-6
-236 -226 -6 c-258 -6 -420 -27 -642 -83 -354 -89 -705 -249 -980 -446 -42
-30 -81 -58 -87 -62 -15 -9 43 119 115 254 305 572 740 1041 1295 1396 118 75
515 284 541 284 7 0 8 -152 3 -432z m-62 -1255 l39 -6 -7 -366 c-4 -201 -9
-367 -11 -369 -1 -2 -65 6 -141 17 -533 76 -1148 91 -1654 41 -52 -5 -96 -7
-98 -5 -5 4 60 63 147 133 184 149 493 322 725 407 185 68 447 126 648 144
118 10 301 13 352 4z"/>
<path d="M8029 25274 c-110 -34 -205 -131 -241 -248 -65 -213 71 -433 294
-477 209 -40 417 121 435 338 14 174 -96 339 -260 388 -63 19 -167 18 -228 -1z"/>
<path d="M21815 26274 c-202 -21 -320 -43 -455 -86 -285 -91 -483 -254 -595
-491 -49 -102 -85 -251 -92 -379 l-6 -108 325 0 325 0 11 68 c46 275 194 439
451 499 109 26 407 25 506 -1 288 -75 435 -275 423 -574 -3 -84 -7 -104 -31
-144 -49 -84 -147 -133 -324 -163 -48 -8 -259 -28 -468 -45 -209 -17 -425 -38
-479 -46 -323 -51 -589 -184 -739 -369 -61 -76 -121 -197 -149 -300 -28 -104
-31 -370 -5 -481 93 -405 372 -641 857 -726 115 -20 471 -16 589 5 348 66 602
239 739 504 20 39 38 70 40 68 2 -2 7 -59 12 -128 13 -177 44 -283 112 -379
l19 -28 298 0 297 0 -23 69 c-63 188 -73 381 -73 1406 0 495 -5 892 -10 935
-65 498 -392 790 -982 875 -108 16 -482 28 -573 19z m880 -2138 c-85 -495
-429 -783 -910 -763 -320 13 -514 128 -597 353 -18 49 -21 82 -22 194 l-1 136
38 76 c55 111 142 183 285 235 107 39 190 52 527 84 176 16 349 34 385 40 105
18 216 57 262 92 l43 33 3 -195 c2 -141 -2 -219 -13 -285z"/>
<path d="M27115 26269 c-274 -29 -559 -134 -751 -277 -315 -236 -505 -595
-576 -1087 -7 -53 -13 -183 -12 -315 0 -250 14 -374 64 -568 185 -713 736
-1112 1535 -1112 362 0 687 85 925 242 81 53 226 191 291 278 91 120 197 357
233 523 l6 27 -304 0 -304 0 -18 -52 c-121 -372 -449 -576 -889 -555 -202 10
-328 48 -472 143 -169 112 -283 285 -348 526 -28 102 -55 289 -55 374 l0 54
1224 0 1223 0 7 61 c21 207 -14 511 -85 738 -43 134 -146 340 -222 441 -245
323 -601 514 -1046 559 -118 12 -308 12 -426 0z m455 -474 c319 -77 530 -302
620 -658 15 -62 31 -138 35 -169 l7 -58 -897 0 -897 0 7 58 c30 240 137 481
276 621 123 123 250 183 479 225 52 10 307 -3 370 -19z"/>
<path d="M4870 23019 c-300 -16 -613 -53 -927 -111 l-171 -31 -9 -86 c-4 -47
-8 -234 -8 -416 1 -349 13 -493 65 -755 215 -1085 845 -2021 1770 -2634 187
-124 292 -184 481 -276 407 -196 825 -316 1309 -377 128 -16 230 -18 870 -18
640 0 742 2 870 18 315 39 591 102 855 193 88 31 178 61 201 68 23 6 47 16 55
22 8 6 66 35 131 63 274 123 613 333 868 537 170 136 485 450 616 614 486 609
778 1285 879 2030 16 121 56 593 50 598 -2 2 -102 -55 -222 -127 -371 -220
-609 -335 -903 -436 -378 -129 -704 -185 -1086 -185 -316 0 -561 31 -887 111
-408 100 -607 173 -1642 594 -363 148 -605 238 -838 311 -736 232 -1542 334
-2327 293z m965 -423 c726 -79 1211 -212 2090 -571 778 -318 1008 -406 1310
-500 185 -58 412 -115 570 -145 66 -13 123 -26 127 -29 4 -3 -4 -521 -17
-1151 -14 -630 -25 -1175 -25 -1212 l0 -67 -107 -35 c-230 -74 -490 -128 -758
-158 -170 -18 -1380 -18 -1550 0 -891 99 -1664 472 -2276 1099 -289 297 -502
600 -684 975 -201 415 -314 831 -355 1303 -13 152 -13 435 -1 435 6 0 70 9
143 19 115 17 353 42 513 55 28 2 235 2 460 1 294 -2 452 -8 560 -19z m6056
-1110 c-328 -386 -770 -673 -1251 -811 -106 -31 -318 -75 -357 -75 -15 0 -17
170 -6 505 l6 201 256 0 c345 0 597 30 911 109 136 34 391 115 470 148 19 9
37 14 39 11 2 -2 -29 -41 -68 -88z m285 -228 c-69 -225 -226 -560 -367 -786
-303 -486 -720 -904 -1199 -1202 -126 -78 -349 -200 -366 -200 -9 0 10 1167
19 1176 2 3 51 11 108 20 642 93 1297 448 1724 932 49 56 91 102 92 102 1 0
-4 -19 -11 -42z"/>
<path d="M8035 20217 c-185 -62 -297 -225 -282 -410 15 -182 150 -326 335
-358 142 -25 297 42 382 166 137 199 62 475 -158 578 -55 26 -81 32 -152 34
-52 2 -101 -2 -125 -10z"/>
<path d="M3342 22042 c-78 -328 -151 -640 -162 -693 -51 -255 -100 -671 -121
-1024 -13 -225 -7 -902 10 -1080 77 -803 220 -1403 483 -2020 71 -168 223
-465 300 -590 279 -450 593 -713 967 -812 133 -36 343 -38 475 -5 287 72 533
272 656 535 22 47 40 90 40 96 0 6 2 11 6 11 3 0 71 -60 152 -134 602 -550
1128 -883 1567 -993 97 -24 129 -27 270 -28 187 0 242 11 380 80 301 148 476
455 478 838 1 111 3 128 16 124 9 -3 84 -26 166 -51 296 -93 649 -169 905
-196 146 -15 427 -12 547 6 481 71 773 333 859 771 24 120 24 401 0 533 -77
423 -313 706 -696 834 -137 46 -253 66 -425 73 -192 8 -297 -5 -735 -92 -423
-83 -714 -135 -937 -164 -763 -102 -1361 -85 -1913 54 -970 244 -1802 828
-2345 1645 -225 338 -367 630 -488 1005 -102 314 -130 471 -222 1220 -42 341
-79 628 -83 637 -4 10 -65 -226 -150 -580z m218 -1857 c324 -744 887 -1412
1575 -1870 600 -398 1240 -633 1975 -722 209 -26 870 -25 1120 0 399 41 788
102 1340 213 391 77 476 88 640 81 206 -9 328 -43 457 -129 121 -82 192 -192
235 -367 32 -128 32 -374 0 -486 -63 -220 -207 -333 -477 -375 -157 -25 -454
-10 -705 36 -406 74 -1089 296 -1362 443 -84 45 -263 121 -286 121 -7 0 -162
-377 -162 -394 0 -2 73 -37 161 -77 138 -63 170 -82 218 -129 67 -66 106 -143
123 -240 10 -60 10 -86 -4 -165 -29 -174 -110 -295 -236 -357 -66 -33 -69 -33
-202 -32 -124 0 -143 3 -235 33 -222 72 -559 268 -848 494 -366 286 -844 739
-1051 995 -32 40 -75 85 -95 102 l-37 29 -148 -148 c-82 -82 -147 -153 -145
-159 2 -6 37 -47 78 -92 107 -119 136 -210 107 -348 -50 -238 -280 -421 -532
-422 -67 0 -182 26 -259 60 -85 37 -213 129 -304 219 -166 165 -293 354 -446
666 -335 680 -514 1420 -565 2325 -16 292 -9 845 10 823 4 -4 31 -62 60 -128z"/>
<path d="M33215 22356 c-114 -28 -197 -93 -241 -188 -26 -56 -29 -74 -29 -158
1 -121 24 -179 101 -249 82 -75 142 -95 289 -95 153 0 211 20 296 103 78 77
103 143 97 261 -7 140 -66 233 -185 293 -91 46 -222 59 -328 33z"/>
<path d="M16090 20080 l0 -2241 1233 4 c1094 3 1243 6 1327 20 600 106 963
426 1076 949 26 117 26 389 0 508 -87 404 -351 682 -754 791 -42 12 -78 23
-80 24 -2 2 27 13 65 25 390 129 618 419 664 847 38 352 -71 691 -296 919
-177 180 -402 293 -701 353 -188 38 -297 41 -1431 41 l-1103 0 0 -2240z m2320
1682 c263 -70 431 -226 496 -463 25 -90 26 -328 1 -419 -32 -119 -83 -208
-166 -290 -90 -89 -178 -137 -327 -177 l-99 -27 -762 -4 -763 -3 0 706 0 706
768 -4 c757 -3 768 -3 852 -25z m-80 -1902 c271 -22 466 -117 586 -285 100
-141 140 -292 131 -499 -8 -191 -47 -309 -142 -432 -90 -115 -225 -200 -390
-246 -79 -22 -88 -23 -902 -26 l-823 -3 0 751 0 750 713 0 c391 0 764 -5 827
-10z"/>
<path d="M23760 20080 l0 -2240 335 0 335 0 0 2240 0 2240 -335 0 -335 0 0
-2240z"/>
<path d="M25060 20080 l0 -2240 335 0 335 0 0 2240 0 2240 -335 0 -335 0 0
-2240z"/>
<path d="M37710 21580 l0 -490 -265 0 -265 0 0 -240 0 -240 265 0 265 0 0
-1025 c0 -660 4 -1060 11 -1121 48 -437 242 -609 726 -646 145 -11 425 -3 626
19 l57 6 0 223 0 222 -262 4 c-245 4 -267 6 -320 27 -65 25 -125 86 -148 148
-12 32 -15 211 -18 1091 l-2 1052 375 0 375 0 0 240 0 240 -375 0 -375 0 0
490 0 490 -335 0 -335 0 0 -490z"/>
<path d="M21475 21139 c-274 -29 -559 -134 -751 -277 -315 -236 -505 -595
-576 -1087 -7 -53 -13 -183 -12 -315 0 -250 14 -374 64 -568 185 -713 736
-1112 1535 -1112 362 0 687 85 925 242 81 53 226 191 291 278 91 120 197 357
233 523 l6 27 -304 0 -304 0 -18 -52 c-121 -372 -449 -576 -889 -555 -202 10
-328 48 -472 143 -169 112 -283 285 -348 526 -28 102 -55 289 -55 374 l0 54
1224 0 1223 0 7 61 c21 207 -14 511 -85 738 -43 134 -146 340 -222 441 -245
323 -601 514 -1046 559 -118 12 -308 12 -426 0z m455 -474 c319 -77 530 -302
620 -658 15 -62 31 -138 35 -169 l7 -58 -897 0 -897 0 7 58 c30 240 137 481
276 621 123 123 250 183 479 225 52 10 307 -3 370 -19z"/>
<path d="M27555 21144 c-202 -21 -320 -43 -455 -86 -285 -91 -483 -254 -595
-491 -49 -102 -85 -251 -92 -379 l-6 -108 325 0 325 0 11 68 c46 275 194 439
451 499 109 26 407 25 506 -1 288 -75 435 -275 423 -574 -3 -84 -7 -104 -31
-144 -49 -84 -147 -133 -324 -163 -48 -8 -259 -28 -468 -45 -209 -17 -425 -38
-479 -46 -323 -51 -589 -184 -739 -369 -61 -76 -121 -197 -149 -300 -28 -104
-31 -370 -5 -481 93 -405 372 -641 857 -726 115 -20 471 -16 589 5 348 66 602
239 739 504 20 39 38 70 40 68 2 -2 7 -59 12 -128 13 -177 44 -283 112 -379
l19 -28 298 0 297 0 -23 69 c-63 188 -73 381 -73 1406 0 495 -5 892 -10 935
-65 498 -392 790 -982 875 -108 16 -482 28 -573 19z m880 -2138 c-85 -495
-429 -783 -910 -763 -320 13 -514 128 -597 353 -18 49 -21 82 -22 194 l-1 136
38 76 c55 111 142 183 285 235 107 39 190 52 527 84 176 16 349 34 385 40 105
18 216 57 262 92 l43 33 3 -195 c2 -141 -2 -219 -13 -285z"/>
<path d="M35325 21139 c-424 -43 -740 -194 -904 -433 -112 -163 -170 -388
-158 -621 7 -146 29 -241 83 -353 104 -215 322 -351 686 -427 68 -14 292 -50
500 -80 207 -30 407 -65 445 -76 218 -67 328 -186 340 -365 18 -271 -127 -451
-422 -526 -81 -21 -112 -23 -315 -22 -198 0 -234 3 -305 22 -271 74 -410 230
-450 507 l-11 80 -323 3 -323 2 7 -87 c13 -175 64 -348 136 -469 44 -74 167
-204 243 -259 223 -158 522 -238 931 -252 474 -15 850 67 1116 243 80 53 212
189 258 267 119 201 157 460 105 713 -54 268 -231 459 -534 579 -153 61 -340
101 -773 165 -224 33 -434 69 -467 79 -116 36 -190 97 -233 190 -30 65 -31
277 -3 364 54 165 189 265 409 303 131 23 392 15 497 -16 215 -62 337 -195
376 -410 9 -47 18 -95 20 -107 l4 -23 322 0 321 0 -7 86 c-20 268 -105 456
-278 619 -160 151 -374 244 -670 290 -123 19 -493 28 -623 14z"/>
<path d="M40805 21144 c-202 -21 -320 -43 -455 -86 -285 -91 -483 -254 -595
-491 -49 -102 -85 -251 -92 -379 l-6 -108 325 0 325 0 11 68 c46 275 194 439
451 499 109 26 407 25 506 -1 288 -75 435 -275 423 -574 -3 -84 -7 -104 -31
-144 -49 -84 -147 -133 -324 -163 -48 -8 -259 -28 -468 -45 -209 -17 -425 -38
-479 -46 -323 -51 -589 -184 -739 -369 -61 -76 -121 -197 -149 -300 -28 -104
-31 -370 -5 -481 93 -405 372 -641 857 -726 115 -20 471 -16 589 5 348 66 602
239 739 504 20 39 38 70 40 68 2 -2 7 -59 12 -128 13 -177 44 -283 112 -379
l19 -28 298 0 297 0 -23 69 c-63 188 -73 381 -73 1406 0 495 -5 892 -10 935
-65 498 -392 790 -982 875 -108 16 -482 28 -573 19z m880 -2138 c-85 -495
-429 -783 -910 -763 -320 13 -514 128 -597 353 -18 49 -21 82 -22 194 l-1 136
38 76 c55 111 142 183 285 235 107 39 190 52 527 84 176 16 349 34 385 40 105
18 216 57 262 92 l43 33 3 -195 c2 -141 -2 -219 -13 -285z"/>
<path d="M29369 21043 c10 -27 287 -758 616 -1625 l599 -1578 402 0 402 0 32
83 c17 45 293 771 612 1612 319 842 583 1536 585 1543 4 9 -69 12 -344 12
l-349 0 -454 -1287 c-250 -709 -461 -1305 -470 -1327 l-16 -38 -470 1323 -470
1324 -347 3 -347 2 19 -47z"/>
<path d="M33000 19465 l0 -1625 335 0 335 0 0 1625 0 1625 -335 0 -335 0 0
-1625z"/>
</g>
</svg>
