<?xml version="1.0" standalone="no"?>
<!DOCTYPE svg PUBLIC "-//W3C//DTD SVG 20010904//EN"
 "http://www.w3.org/TR/2001/REC-SVG-20010904/DTD/svg10.dtd">
<svg version="1.0" xmlns="http://www.w3.org/2000/svg"
 width="3595.000000pt" height="4575.000000pt" viewBox="0 0 3595.000000 4575.000000"
 preserveAspectRatio="xMidYMid meet">

<g transform="translate(0.000000,4575.000000) scale(0.100000,-0.100000)"
fill="#000000" stroke="none">
<path d="M20243 40883 c-13 -2 -36 -23 -52 -46 -41 -60 -137 -148 -217 -200
-145 -93 -320 -170 -694 -305 -491 -177 -687 -279 -756 -398 -56 -95 -26 -192
84 -280 111 -87 291 -169 692 -314 254 -91 407 -153 522 -211 206 -103 345
-225 415 -365 l38 -78 0 -126 0 -127 -42 -84 c-71 -143 -198 -253 -422 -365
-129 -64 -189 -88 -546 -219 -424 -155 -588 -234 -687 -328 -59 -57 -82 -100
-81 -157 0 -160 179 -275 757 -484 425 -154 567 -216 712 -311 162 -106 255
-215 295 -348 28 -90 23 -234 -10 -318 -32 -81 -113 -181 -197 -247 -154 -120
-321 -198 -759 -357 -464 -168 -627 -247 -730 -356 -57 -60 -81 -117 -69 -166
11 -45 40 -96 71 -124 l28 -25 215 9 c249 10 1456 3 1484 -9 17 -6 18 -4 13
17 -25 87 -29 169 -13 245 21 106 59 175 140 262 147 155 313 241 826 427 325
119 392 146 515 206 195 96 285 183 293 283 5 66 -17 114 -85 177 -100 94
-260 170 -671 320 -551 200 -724 287 -873 439 -212 215 -207 514 12 730 141
137 350 242 839 418 456 164 642 257 731 365 76 92 65 189 -33 284 -98 95
-275 180 -683 328 -387 140 -515 195 -659 279 -125 75 -213 150 -269 232 -68
101 -90 168 -90 284 0 196 91 340 308 484 138 92 265 148 710 311 272 100 474
182 511 209 20 15 -27 19 -401 36 -205 9 -1128 12 -1172 3z"/>
<path d="M19645 40853 c-595 -55 -1384 -141 -1450 -158 -194 -52 -356 -220
-395 -409 -7 -35 -9 -882 -8 -2751 l3 -2700 32 -67 c65 -138 185 -226 322
-236 l70 -5 -16 49 c-9 29 -15 86 -15 139 -1 149 50 262 168 376 145 140 321
229 786 398 444 161 577 220 700 311 85 62 120 114 126 184 5 66 -17 114 -85
177 -100 94 -260 170 -671 320 -551 200 -724 287 -873 439 -176 179 -205 438
-70 633 127 186 347 308 921 515 473 170 667 270 745 382 37 53 45 131 20 184
-21 44 -113 130 -188 174 -77 46 -244 119 -422 185 -581 215 -635 237 -779
319 -258 148 -379 316 -379 528 0 241 157 427 498 589 127 61 297 126 760 291
204 73 372 134 374 136 5 5 -115 2 -174 -3z"/>
<path d="M15310 40818 c-835 -173 -2661 -562 -4965 -1059 -715 -155 -2813
-604 -4662 -999 l-3362 -717 -73 -43 c-103 -61 -201 -159 -241 -239 l-32 -66
0 -840 0 -840 34 -69 c41 -84 121 -166 222 -228 l74 -46 2130 -456 c1172 -250
3664 -784 5540 -1185 3542 -758 5021 -1074 5333 -1137 l183 -38 92 18 c112 21
186 59 267 135 75 70 121 148 151 254 l24 82 0 735 c0 681 -1 740 -18 800 -30
107 -76 188 -144 256 -114 114 9 82 -1740 454 l-53 12 0 1254 c0 690 2 1254 5
1254 3 0 142 30 308 66 377 82 1170 250 1218 258 65 11 192 81 256 140 66 61
119 151 149 251 16 54 18 125 21 755 3 442 0 725 -6 779 -25 203 -183 407
-358 461 -84 26 -223 25 -353 -2z m-3612 -4330 l-3 -374 -1085 233 c-597 128
-1373 293 -1725 368 -351 75 -641 138 -643 140 -2 2 23 9 55 15 121 24 1318
279 2338 498 l1060 227 3 -367 c1 -201 1 -535 0 -740z"/>
<path d="M22225 40759 c-143 -145 -344 -247 -845 -427 -491 -177 -687 -279
-756 -398 -56 -95 -26 -192 84 -280 111 -87 291 -169 692 -314 497 -179 692
-279 831 -427 115 -122 155 -229 147 -390 -5 -85 -9 -102 -46 -177 -69 -138
-201 -252 -420 -361 -127 -63 -225 -103 -547 -220 -291 -106 -383 -143 -499
-203 -340 -175 -361 -359 -61 -535 100 -58 276 -133 549 -231 130 -48 278
-103 329 -122 485 -191 698 -396 697 -673 -1 -92 -13 -148 -46 -216 -41 -80
-93 -142 -176 -209 -152 -121 -318 -200 -763 -361 -447 -162 -606 -237 -713
-339 -89 -84 -107 -142 -72 -224 22 -51 97 -132 122 -132 76 0 544 -48 838
-86 330 -41 940 -149 1190 -210 16 -4 6 7 -30 32 -309 212 -365 556 -131 807
142 152 329 249 832 432 436 159 556 213 688 310 150 110 162 236 34 356 -102
96 -271 176 -708 334 -434 157 -585 227 -742 343 -165 123 -244 262 -245 432
-2 149 46 260 159 373 141 142 340 243 823 417 395 143 562 218 676 303 78 60
116 113 122 176 7 74 -11 112 -83 180 -110 102 -242 165 -680 326 -455 167
-558 212 -710 312 -212 139 -308 291 -308 483 0 229 140 406 449 564 113 59
200 95 424 177 102 37 178 70 170 73 -61 23 -1103 166 -1205 166 -6 0 -37 -27
-70 -61z"/>
<path d="M24036 40523 c-54 -29 -209 -90 -451 -178 -326 -119 -422 -158 -545
-221 -244 -125 -323 -246 -246 -378 69 -119 265 -221 756 -398 260 -94 421
-158 533 -214 217 -108 359 -233 426 -373 33 -70 36 -85 39 -181 3 -88 0 -116
-18 -169 -44 -131 -130 -232 -285 -334 -150 -99 -289 -159 -710 -312 -376
-137 -536 -209 -639 -289 -129 -100 -161 -189 -103 -289 73 -123 247 -216 747
-397 416 -150 561 -215 717 -319 115 -77 201 -168 249 -266 34 -69 38 -84 42
-179 4 -86 1 -116 -16 -173 -58 -189 -245 -347 -582 -491 -63 -27 -236 -93
-385 -147 -447 -162 -606 -238 -713 -339 -66 -62 -84 -96 -85 -155 -1 -119
113 -221 378 -340 61 -27 242 -97 403 -155 162 -59 342 -127 400 -152 257
-109 420 -222 517 -358 39 -56 52 -65 122 -96 392 -170 835 -412 1237 -677
l190 -125 35 17 c123 58 238 150 273 219 28 56 21 131 -18 187 -78 112 -257
204 -744 382 -419 153 -548 210 -695 304 -131 85 -244 212 -281 315 -86 244
14 481 276 650 153 99 281 157 660 295 392 143 580 224 670 290 147 109 187
211 121 315 -77 121 -243 207 -766 398 -417 152 -538 206 -692 309 -274 183
-368 442 -248 686 71 145 201 254 440 370 149 73 223 102 630 250 486 177 665
299 665 453 0 89 -70 168 -226 257 -107 61 -260 124 -579 240 -325 118 -485
187 -624 269 -261 153 -386 360 -351 582 35 228 213 397 589 561 80 34 138 65
130 68 -135 50 -1146 306 -1201 305 -7 -1 -26 -8 -42 -17z"/>
<path d="M25720 40054 c-19 -7 -116 -43 -215 -79 -99 -37 -249 -100 -334 -142
-132 -65 -162 -84 -220 -141 -117 -116 -117 -198 0 -314 58 -57 88 -76 220
-141 85 -42 249 -110 364 -152 609 -221 778 -302 942 -449 233 -210 232 -550
-2 -765 -151 -137 -333 -227 -818 -402 -585 -211 -752 -311 -791 -472 -12 -49
12 -106 69 -166 90 -94 256 -181 565 -294 69 -26 206 -76 305 -113 430 -158
640 -282 755 -445 148 -211 115 -481 -81 -665 -146 -136 -327 -227 -776 -390
-327 -118 -401 -148 -538 -214 -298 -146 -373 -289 -230 -439 103 -109 268
-189 715 -351 449 -162 637 -251 788 -373 77 -62 153 -160 183 -236 27 -70 37
-210 19 -290 -27 -125 -121 -249 -263 -349 l-79 -55 34 -26 c18 -14 56 -46 83
-71 28 -25 104 -91 170 -145 351 -291 777 -717 1093 -1092 659 -785 1191
-1700 1550 -2663 44 -118 101 -282 128 -365 26 -82 48 -151 48 -152 1 -1 84
-24 186 -53 809 -223 1676 -651 2345 -1157 1142 -864 1712 -1977 1645 -3215
-6 -101 -13 -198 -16 -217 -6 -31 -5 -33 17 -26 60 18 223 92 314 142 357 198
710 529 992 931 341 486 623 1139 816 1887 l44 170 -44 195 c-181 815 -435
1654 -725 2395 -50 127 -92 238 -95 248 -7 23 -13 22 -165 -18 -689 -181
-1442 -221 -2160 -116 -1605 236 -3084 1160 -4075 2546 -212 297 -374 568
-543 910 -373 752 -591 1515 -676 2365 -21 216 -30 760 -15 990 37 585 135
1090 316 1635 46 138 113 322 149 410 87 209 273 583 379 762 l85 142 -24 16
c-46 30 -553 286 -744 375 -529 248 -1143 496 -1496 604 -84 25 -153 46 -155
45 -2 -1 -20 -7 -39 -15z m9065 -12654 c259 -81 454 -286 516 -546 17 -73 20
-110 16 -204 -8 -200 -76 -351 -221 -495 -93 -92 -177 -144 -291 -182 -73 -25
-94 -27 -230 -27 -136 0 -157 2 -230 27 -104 35 -191 87 -276 165 -263 243
-314 624 -128 939 44 73 169 198 242 242 75 44 165 80 246 97 94 19 266 12
356 -16z"/>
<path d="M28528 38678 c-320 -545 -540 -1105 -673 -1715 -36 -164 -41 -203
-27 -203 10 0 587 -68 639 -75 l42 -6 6 38 c18 101 72 323 111 456 124 415
338 843 592 1183 l31 40 -132 84 c-175 112 -505 310 -515 310 -4 0 -38 -51
-74 -112z"/>
<path d="M29564 38013 c-184 -261 -331 -549 -438 -861 -43 -125 -116 -398
-130 -488 l-7 -40 373 -43 c205 -23 379 -43 387 -44 9 -1 21 29 37 103 81 356
215 665 420 963 l53 77 -137 103 c-191 144 -462 337 -472 337 -5 0 -44 -48
-86 -107z"/>
<path d="M30573 37287 c-226 -344 -345 -721 -377 -1193 l-5 -71 217 -94 c294
-127 818 -390 1095 -548 937 -537 1779 -1186 2515 -1940 73 -75 130 -129 126
-121 -22 45 -307 494 -425 670 -730 1089 -1614 2101 -2605 2981 -124 111 -405
350 -465 396 -13 11 -24 -1 -76 -80z"/>
<path d="M27781 36553 c-73 -521 -80 -1048 -20 -1558 126 -1089 546 -2149
1194 -3010 431 -573 963 -1069 1537 -1433 748 -475 1558 -757 2398 -836 551
-52 1090 -13 1623 115 110 27 167 45 164 53 -38 96 -386 815 -408 842 -6 7
-41 6 -116 -5 -168 -22 -773 -21 -963 2 -615 77 -1152 239 -1700 513 -424 212
-768 439 -1130 744 -169 142 -492 465 -632 630 -615 730 -1023 1562 -1192
2435 -61 317 -76 472 -83 842 l-6 322 -318 251 c-175 137 -320 250 -322 250
-2 0 -14 -71 -26 -157z"/>
<path d="M29410 35977 c0 -1 26 -138 58 -305 38 -194 55 -301 47 -298 -7 2
-141 106 -298 230 -269 212 -287 224 -287 197 0 -56 21 -288 36 -401 143
-1085 716 -2155 1566 -2928 879 -799 1949 -1253 3033 -1289 203 -6 445 3 445
18 0 24 -447 759 -465 764 -5 1 -72 8 -147 14 -629 52 -1309 310 -1888 717
-271 190 -586 474 -797 719 -560 649 -922 1467 -984 2225 -6 74 -13 140 -14
146 -3 10 -305 199 -305 191z"/>
<path d="M30245 35408 c136 -684 476 -1319 985 -1842 308 -316 619 -548 995
-742 305 -157 638 -274 933 -328 l34 -6 -38 53 c-803 1107 -1751 2065 -2795
2820 -59 42 -110 77 -114 77 -3 0 -4 -15 0 -32z"/>
<path d="M2460 32538 c-42 -5 -95 -24 -150 -51 -161 -79 -273 -222 -299 -385
-8 -48 -11 -814 -9 -2733 l3 -2666 48 -97 c56 -112 146 -216 225 -259 105 -57
100 -57 904 -57 720 0 740 1 801 21 139 46 273 153 328 261 62 123 59 26 59
1718 0 851 2 1549 5 1552 7 6 77 -18 845 -297 1304 -473 7988 -2928 8435
-3098 94 -35 229 -84 300 -108 l130 -44 720 -3 c501 -2 740 0 785 8 127 22
311 154 373 268 61 112 57 -85 57 2828 0 1465 -2 2682 -6 2706 -3 24 -26 86
-51 138 -72 149 -168 234 -323 286 -51 17 -108 19 -741 22 -777 3 -840 -1
-958 -60 -120 -61 -213 -175 -263 -323 l-23 -70 -3 -1563 c-2 -1416 -4 -1563
-18 -1558 -51 19 -6774 2489 -7724 2838 -630 230 -1233 453 -1340 495 -284
110 -512 191 -619 219 l-93 24 -667 -1 c-366 -1 -695 -6 -731 -11z"/>
<path d="M18635 31844 c-491 -88 -896 -438 -1050 -908 -69 -211 -66 -126 -63
-1886 l3 -1585 31 -115 c110 -401 369 -718 728 -889 197 -93 502 -155 593
-120 15 6 154 57 308 114 520 190 686 281 749 407 42 83 30 140 -43 220 -96
105 -264 187 -720 353 -161 58 -350 131 -418 161 -407 177 -583 367 -583 629
1 298 228 499 805 713 105 39 271 101 370 137 318 118 509 225 575 324 63 94
50 165 -49 261 -107 104 -259 177 -711 340 -285 103 -400 150 -523 211 -238
120 -376 246 -437 399 -28 69 -38 206 -20 281 44 189 207 349 491 483 132 62
220 97 494 196 272 98 382 143 500 201 193 97 229 89 -400 88 -430 -1 -567 -4
-630 -15z"/>
<path d="M20201 31820 c-35 -63 -132 -161 -213 -217 -158 -109 -296 -171 -711
-322 -314 -114 -439 -165 -555 -228 -314 -170 -323 -353 -25 -524 106 -60 278
-132 553 -232 302 -109 422 -157 540 -216 249 -123 393 -257 452 -419 30 -82
30 -234 0 -317 -71 -193 -262 -347 -609 -491 -48 -20 -203 -78 -343 -129 -424
-154 -563 -216 -681 -305 -145 -109 -168 -221 -68 -334 74 -85 272 -189 559
-295 91 -33 246 -90 345 -127 207 -76 407 -169 515 -239 226 -147 334 -346
301 -553 -30 -195 -164 -347 -430 -486 l-106 -55 626 -1 626 0 134 64 c74 35
229 99 344 141 598 217 743 285 854 396 52 52 71 93 71 150 0 58 -24 101 -91
164 -105 97 -243 162 -674 320 -446 164 -557 212 -700 305 -117 77 -171 125
-225 203 -65 92 -93 178 -94 287 0 211 122 380 380 528 144 82 198 104 779
319 296 109 437 181 535 271 73 66 94 108 88 178 -9 104 -95 184 -313 289
-130 63 -214 96 -610 240 -342 125 -567 243 -691 362 -207 199 -227 480 -49
697 112 137 343 267 720 406 500 184 496 183 485 194 -8 8 -256 12 -853 14
l-843 3 -23 -41z"/>
<path d="M22292 31663 c-82 -49 -285 -134 -575 -239 -320 -117 -467 -177 -567
-231 -281 -154 -321 -315 -116 -470 92 -69 293 -161 571 -263 382 -139 480
-178 607 -240 229 -113 360 -225 431 -369 l42 -84 0 -127 0 -126 -38 -78 c-69
-139 -209 -262 -413 -364 -119 -60 -251 -113 -509 -207 -421 -153 -595 -231
-707 -319 -110 -88 -140 -185 -84 -280 69 -119 265 -221 756 -398 260 -94 421
-158 533 -214 217 -108 359 -233 426 -373 35 -75 36 -78 36 -202 l0 -126 -42
-84 c-91 -183 -279 -317 -663 -470 -151 -61 -154 -72 -12 -43 557 113 983 562
1068 1127 12 83 14 324 11 1660 -3 1457 -4 1567 -21 1637 -67 284 -181 495
-371 685 -98 99 -269 225 -303 225 -9 -1 -36 -12 -60 -27z"/>
<path d="M29542 27602 c39 -162 133 -634 153 -767 24 -166 14 -150 97 -164 97
-16 187 -53 285 -117 309 -204 418 -603 258 -939 -90 -188 -287 -354 -471
-397 l-51 -12 -7 -181 c-4 -99 -14 -272 -22 -384 -8 -112 -13 -205 -12 -206 2
-1 59 -21 128 -45 516 -177 1089 -466 1600 -807 121 -80 125 -82 134 -60 15
34 13 722 -2 852 -94 806 -355 1488 -811 2115 -291 401 -726 823 -1181 1145
-140 99 -131 102 -98 -33z"/>
<path d="M30660 27211 c395 -426 656 -801 876 -1257 385 -796 537 -1710 429
-2569 -14 -105 -76 -408 -94 -457 -5 -15 -34 2 -181 108 -530 382 -1022 666
-1520 879 -189 81 -431 168 -440 158 -4 -4 -13 -51 -20 -103 -14 -114 -72
-442 -98 -563 l-19 -88 133 -99 c407 -306 812 -694 1098 -1053 47 -60 86 -112
86 -115 -1 -4 -44 -34 -97 -67 -464 -289 -905 -705 -1209 -1141 -447 -640
-716 -1434 -809 -2389 -18 -181 -32 -829 -20 -951 l7 -79 49 180 c134 491 347
1033 561 1430 259 479 508 822 848 1169 453 462 976 793 1446 915 66 17 125
31 131 31 6 0 12 -88 16 -227 20 -675 166 -1272 452 -1843 335 -669 879 -1303
1557 -1815 l141 -107 33 53 c18 29 30 58 26 64 -162 260 -348 625 -450 880
-256 641 -411 1343 -462 2093 -15 223 -12 677 5 881 8 96 16 175 17 177 2 1
68 -45 148 -103 647 -473 1182 -767 1723 -949 150 -51 317 -98 323 -91 17 17
249 865 239 875 -2 2 -62 30 -132 61 -303 134 -706 360 -998 559 -174 118
-456 335 -447 343 4 4 79 32 167 64 189 67 348 136 465 200 621 344 1049 980
1270 1885 34 142 36 192 20 521 -15 312 -68 930 -83 981 -1 4 -28 -63 -61
-150 -471 -1268 -1289 -2166 -2217 -2433 -96 -27 -304 -59 -390 -59 l-35 0 28
158 c47 260 60 385 65 637 9 446 -52 807 -204 1190 -174 440 -416 798 -793
1176 -415 415 -854 727 -1470 1042 l-215 111 105 -113z"/>
<path d="M15310 25498 c-835 -173 -2661 -562 -4965 -1059 -715 -155 -2813
-604 -4662 -999 l-3362 -717 -73 -43 c-103 -61 -201 -159 -241 -239 l-32 -66
0 -840 0 -840 34 -69 c41 -84 121 -166 222 -228 l74 -46 2130 -456 c1172 -250
3664 -784 5540 -1185 3542 -758 5021 -1074 5333 -1137 l183 -38 92 18 c112 21
186 59 267 135 75 70 121 148 151 254 l24 82 0 735 c0 681 -1 740 -18 800 -30
107 -76 188 -144 256 -114 114 9 82 -1740 454 l-53 12 0 1254 c0 690 2 1254 5
1254 3 0 142 30 308 66 377 82 1170 250 1218 258 65 11 192 81 256 140 66 61
119 151 149 251 16 54 18 125 21 755 3 442 0 725 -6 779 -25 203 -183 407
-358 461 -84 26 -223 25 -353 -2z m-3612 -4330 l-3 -374 -1085 233 c-597 128
-1373 293 -1725 368 -351 75 -641 138 -643 140 -2 2 23 9 55 15 121 24 1318
279 2338 498 l1060 227 3 -367 c1 -201 1 -535 0 -740z"/>
<path d="M18710 24579 c-585 -75 -1024 -475 -1167 -1064 -16 -64 -18 -202 -21
-1650 -3 -1741 -5 -1670 59 -1872 130 -408 455 -736 864 -872 184 -61 208 -63
817 -68 l558 -5 59 60 c91 90 102 160 41 255 -62 98 -262 209 -595 331 -99 37
-254 94 -345 127 -191 70 -396 166 -501 234 -202 130 -309 297 -309 479 0 193
94 345 299 481 159 105 282 159 806 351 360 131 508 205 606 303 113 114 101
226 -38 336 -112 88 -291 170 -693 315 -398 143 -581 228 -719 330 -179 133
-261 274 -261 450 0 268 198 470 640 653 47 19 193 74 325 122 315 115 415
155 533 214 294 148 362 292 211 444 l-57 57 -524 -1 c-288 -1 -552 -5 -588
-10z"/>
<path d="M20241 24536 c71 -209 -2 -421 -197 -576 -153 -122 -307 -195 -774
-365 -444 -163 -589 -231 -697 -329 -155 -140 -117 -275 115 -415 103 -62 262
-129 557 -236 536 -194 714 -284 866 -435 208 -208 208 -510 0 -720 -149 -150
-324 -239 -836 -425 -436 -158 -606 -238 -708 -334 -167 -156 -96 -308 218
-461 139 -68 214 -98 620 -245 575 -210 807 -387 855 -655 13 -73 7 -168 -15
-231 -8 -23 -15 -45 -15 -50 0 -13 1482 -11 1600 1 139 15 294 55 354 91 213
130 255 272 119 400 -108 102 -264 177 -695 333 -318 115 -423 158 -561 228
-276 140 -418 298 -447 494 -33 214 72 402 311 557 147 95 262 147 639 284
340 123 401 148 535 214 204 100 295 190 295 291 0 165 -181 279 -785 498
-110 39 -255 94 -321 120 -428 171 -637 355 -674 594 -26 165 31 316 167 447
157 152 307 225 938 454 333 122 566 243 624 324 12 16 21 31 21 34 0 12 -228
100 -314 122 -163 41 -247 45 -1049 45 l-764 0 18 -54z"/>
<path d="M22575 24199 c-16 -23 -59 -65 -95 -94 -150 -123 -339 -213 -790
-375 -447 -162 -612 -242 -715 -351 -83 -86 -92 -161 -32 -250 63 -93 267
-208 567 -318 91 -33 246 -90 345 -127 414 -152 614 -270 737 -431 66 -88 90
-157 96 -275 6 -126 -17 -205 -88 -306 -112 -160 -324 -287 -725 -435 -581
-215 -641 -240 -768 -315 -97 -58 -181 -143 -196 -200 -31 -115 62 -228 277
-336 103 -52 256 -113 509 -205 298 -108 408 -153 546 -223 243 -124 387 -265
429 -421 6 -26 15 -47 19 -47 11 0 80 86 133 165 92 136 163 308 202 485 18
81 19 162 19 1680 0 1517 -1 1599 -19 1679 -59 269 -188 513 -363 683 l-58 57
-30 -40z"/>
<path d="M35860 23063 c-25 -48 -84 -146 -131 -217 -256 -391 -580 -696 -954
-897 -68 -37 -74 -43 -58 -54 65 -45 281 -175 407 -245 127 -71 477 -245 527
-263 13 -4 22 29 57 211 50 258 102 588 136 866 29 231 69 649 64 671 -2 8
-23 -25 -48 -72z"/>
<path d="M29471 22822 c-236 -886 -667 -1829 -1206 -2632 -1080 -1610 -2576
-2772 -4375 -3398 -1046 -364 -2067 -554 -3455 -643 -296 -19 -1317 -23 -1720
-8 -198 8 -414 14 -480 14 -114 0 -123 -2 -188 -32 -79 -38 -163 -114 -200
-181 -44 -82 -57 -151 -57 -314 l0 -148 596 -697 c328 -384 600 -702 604 -706
3 -4 386 443 850 993 803 953 844 1000 860 983 10 -10 392 -457 850 -993 458
-536 836 -973 839 -971 3 2 382 449 842 995 459 545 839 990 844 990 4 -1 387
-444 849 -985 463 -541 845 -984 851 -984 5 0 386 446 845 992 459 546 838
992 841 993 4 0 388 -446 854 -991 820 -958 848 -990 866 -972 9 10 387 457
839 993 452 536 825 976 830 978 4 2 284 -319 620 -713 l613 -716 24 23 c44
40 337 368 468 523 368 434 795 1002 1134 1508 51 77 91 140 89 141 -31 19
-299 224 -373 286 -895 745 -1487 1619 -1764 2601 -71 251 -127 547 -151 802
-7 70 -14 127 -17 127 -13 0 -147 -67 -239 -120 -493 -284 -940 -715 -1296
-1251 -426 -641 -744 -1451 -928 -2359 -55 -270 -89 -490 -160 -1030 -34 -256
-64 -473 -68 -483 -7 -18 -206 769 -252 998 -94 459 -144 1140 -121 1655 39
919 212 1654 551 2345 316 644 750 1176 1300 1592 l128 97 -110 118 c-113 120
-307 307 -456 436 -73 64 -330 272 -335 272 -1 0 -17 -57 -36 -128z m1784
-4436 c503 -171 677 -780 341 -1188 -94 -114 -238 -205 -386 -245 -101 -27
-293 -25 -390 6 -244 75 -423 247 -507 488 -25 71 -27 91 -27 228 0 137 2 157
27 230 65 196 218 367 401 451 108 49 190 64 331 61 110 -3 142 -8 210 -31z"/>
<path d="M33464 20488 c35 -928 234 -1782 586 -2514 72 -150 187 -364 195
-364 8 0 318 589 354 671 l19 47 -54 37 c-78 54 -177 163 -223 247 -156 280
-122 605 91 860 86 103 258 204 398 234 73 16 274 15 340 -1 24 -6 27 -2 47
59 l21 65 -57 16 c-155 42 -466 151 -626 220 -305 130 -663 323 -968 522
l-130 84 7 -183z"/>
<path d="M4715 16769 c-191 -24 -477 -96 -685 -172 -485 -177 -931 -476 -1261
-843 -123 -137 -282 -346 -351 -463 -168 -286 -326 -676 -392 -972 -58 -262
-57 -217 -54 -1884 l3 -1530 31 -65 c60 -128 193 -255 312 -300 l57 -22 6601
0 c6295 -1 6603 0 6655 17 200 66 324 192 376 385 17 61 18 156 15 1510 -2
1581 0 1518 -63 1839 -98 499 -294 915 -649 1372 -148 191 -490 497 -740 662
-290 191 -754 371 -1160 449 l-115 22 -4255 2 c-2421 1 -4285 -2 -4325 -7z
m8213 -2370 c137 -14 259 -45 317 -78 122 -71 250 -205 305 -320 12 -25 33
-68 46 -95 36 -72 45 -188 47 -623 l2 -388 -4653 -3 -4654 -2 5 422 c4 385 6
432 26 520 12 53 30 116 40 140 23 55 93 149 157 212 46 46 187 146 205 146 5
0 38 14 74 31 51 24 85 32 162 38 154 13 7804 13 7921 0z"/>
<path d="M30758 15361 c-51 -60 -428 -508 -838 -995 -410 -487 -748 -885 -752
-886 -4 0 -388 446 -854 991 -817 956 -847 990 -865 972 -10 -10 -387 -457
-839 -993 -452 -536 -826 -975 -833 -975 -6 0 -387 440 -846 977 -460 538
-841 982 -847 988 -7 7 -265 -292 -852 -990 l-843 -999 -33 37 c-18 20 -394
460 -836 977 -441 517 -810 948 -819 957 -15 16 -73 -51 -856 -982 -462 -549
-843 -998 -846 -997 -4 1 -101 112 -216 247 -115 135 -386 451 -601 703 l-392
458 0 -693 0 -693 735 -860 c405 -473 740 -860 745 -860 5 0 385 447 845 993
461 546 841 992 845 990 4 -2 387 -446 850 -988 463 -542 845 -986 848 -987 4
-1 385 448 847 997 780 928 841 997 856 982 9 -9 389 -453 844 -987 455 -533
831 -974 835 -978 4 -5 382 436 840 980 458 543 838 994 844 1001 10 10 149
-148 680 -768 367 -429 671 -780 677 -780 13 0 342 217 554 365 713 497 1503
1153 2039 1694 l119 120 -50 58 c-27 32 -237 277 -467 546 -229 268 -418 487
-421 487 -2 0 -46 -49 -97 -109z"/>
<path d="M26896 12125 c-461 -547 -842 -995 -846 -995 -4 0 -386 443 -848 984
-463 542 -845 987 -850 989 -4 3 -356 -409 -782 -915 -426 -506 -805 -956
-842 -999 l-67 -80 -846 991 c-466 544 -851 990 -856 990 -4 0 -385 -447 -846
-994 -460 -547 -841 -992 -845 -990 -4 3 -338 391 -740 862 l-733 857 -3
-1190 c-2 -1063 0 -1195 14 -1245 51 -177 197 -321 370 -364 75 -19 458 -78
719 -111 1259 -157 2591 -154 3865 10 2033 262 3977 911 5719 1909 113 65 213
123 222 130 16 11 -29 68 -469 584 -268 314 -489 571 -492 571 -3 1 -382 -447
-844 -994z"/>
<path d="M1982 8833 c-44 -21 -89 -74 -101 -120 -14 -50 -14 -546 -1 -595 15
-51 56 -97 110 -122 42 -19 66 -21 323 -24 l277 -4 0 -2077 0 -2077 33 -54
c54 -90 54 -90 403 -90 l302 0 48 32 c27 18 57 49 69 68 20 35 20 42 23 2118
l2 2082 259 0 c280 0 323 6 386 54 62 48 66 75 63 406 l-3 295 -29 43 c-16 24
-47 52 -67 63 -37 18 -70 19 -1051 19 -910 0 -1016 -2 -1046 -17z"/>
<path d="M5440 8834 c-160 -34 -317 -101 -455 -192 -95 -63 -230 -200 -292
-296 -104 -159 -176 -362 -193 -549 -16 -160 -8 -3081 8 -3158 88 -427 333
-733 712 -889 155 -64 216 -74 430 -75 183 0 201 2 294 28 257 71 493 234 649
445 90 123 175 323 202 481 23 129 22 3127 0 3257 -63 359 -295 678 -604 833
-202 101 -328 131 -545 130 -80 0 -169 -7 -206 -15z m366 -909 c36 -24 70 -59
89 -89 l30 -49 0 -1526 0 -1526 -38 -56 c-62 -93 -128 -129 -235 -129 -113 0
-196 53 -254 163 l-23 42 0 1500 0 1500 21 46 c29 61 85 122 137 149 35 17 56
20 129 18 82 -3 89 -5 144 -43z"/>
<path d="M7595 8835 c-46 -25 -93 -75 -107 -114 -19 -54 -19 -3948 0 -4071 26
-165 97 -343 195 -490 137 -204 396 -386 647 -456 114 -31 362 -44 473 -25
395 69 699 296 877 656 48 97 84 232 99 373 8 72 11 691 11 2040 l0 1937 -24
51 c-14 30 -40 64 -62 80 l-37 29 -303 3 c-287 3 -305 2 -342 -17 -49 -25 -88
-71 -102 -119 -7 -25 -10 -678 -10 -1993 l0 -1955 -26 -53 c-33 -65 -83 -117
-138 -142 -48 -22 -148 -25 -208 -7 -53 16 -131 87 -160 146 l-23 47 -5 1987
-5 1986 -31 38 c-66 82 -49 79 -387 82 -259 2 -306 0 -332 -13z"/>
<path d="M10484 8817 c-26 -18 -56 -50 -67 -70 -19 -36 -19 -90 -18 -2482 1
-2029 3 -2452 15 -2478 19 -46 71 -95 114 -107 50 -14 582 -13 619 1 34 13 90
64 109 102 13 24 15 140 14 793 l0 766 187 -4 188 -3 47 -32 c61 -43 112 -104
126 -152 9 -27 12 -220 12 -673 0 -448 3 -645 11 -669 17 -51 55 -97 99 -119
36 -19 59 -20 330 -20 269 0 294 1 329 20 48 24 87 70 101 118 8 26 10 246 7
732 -3 663 -4 699 -24 780 -30 121 -84 250 -148 350 -30 48 -57 93 -60 102 -4
9 14 45 45 90 61 91 123 231 158 358 l27 95 3 735 c4 780 2 807 -44 969 -67
231 -232 469 -423 610 -75 55 -212 126 -318 164 -151 55 -186 57 -813 57
l-578 0 -48 -33z m1158 -857 c58 -17 118 -69 155 -135 l33 -60 -2 -675 c-3
-670 -3 -675 -25 -715 -27 -50 -75 -96 -133 -126 -42 -22 -56 -24 -220 -24
l-175 0 -3 865 c-1 476 0 871 3 879 4 11 35 13 168 8 89 -3 179 -11 199 -17z"/>
<path d="M14250 8834 c-170 -36 -356 -120 -471 -212 -251 -200 -396 -438 -445
-728 -23 -138 -23 -515 1 -669 46 -303 177 -548 425 -795 113 -114 248 -223
610 -494 155 -115 307 -304 352 -435 22 -64 23 -78 23 -416 l0 -350 -38 -56
c-62 -93 -128 -129 -235 -129 -102 1 -189 50 -244 138 -22 36 -23 46 -28 347
-5 301 -6 311 -29 358 -15 30 -39 58 -64 75 l-40 27 -301 3 -301 2 -51 -29
c-39 -23 -58 -42 -75 -78 -23 -45 -24 -61 -27 -260 -6 -385 15 -554 97 -757
57 -143 117 -232 236 -352 164 -167 326 -264 535 -322 88 -25 110 -27 290 -27
183 0 201 2 294 28 254 71 486 229 644 438 96 127 188 352 212 515 18 124 8
845 -14 944 -53 248 -179 486 -363 692 -106 118 -169 174 -443 392 -341 272
-367 294 -428 366 -76 89 -121 163 -149 240 -21 60 -23 82 -23 271 0 201 1
206 26 257 30 61 102 128 154 143 20 6 71 10 113 8 69 -4 81 -8 133 -44 36
-24 70 -59 89 -89 l30 -49 5 -311 c5 -294 6 -313 26 -351 54 -100 74 -105 416
-105 254 0 287 2 323 19 47 22 89 64 104 104 18 47 14 636 -4 743 -63 359
-295 678 -604 833 -203 102 -327 131 -550 130 -84 0 -174 -7 -211 -15z"/>
</g>
</svg>
