<?xml version="1.0" standalone="no"?>
<!DOCTYPE svg PUBLIC "-//W3C//DTD SVG 20010904//EN"
 "http://www.w3.org/TR/2001/REC-SVG-20010904/DTD/svg10.dtd">
<svg version="1.0" xmlns="http://www.w3.org/2000/svg"
 width="12500.000000pt" height="12500.000000pt" viewBox="0 0 12500.000000 12500.000000"
 preserveAspectRatio="xMidYMid meet">

<g transform="translate(0.000000,12500.000000) scale(0.100000,-0.100000)"
fill="#000000" stroke="none">
<path d="M49925 86839 c-2492 -61 -4905 -924 -6889 -2462 -651 -505 -1283
-1115 -1817 -1753 -971 -1162 -1722 -2529 -2177 -3969 -266 -841 -436 -1712
-507 -2595 -26 -329 -35 -569 -35 -945 0 -936 82 -1699 306 -2850 400 -2051
1167 -3805 2230 -5101 403 -490 1041 -1141 1571 -1601 451 -391 839 -682 1633
-1223 683 -466 978 -679 1280 -925 785 -641 1529 -1468 2128 -2367 735 -1101
1185 -2245 1327 -3373 34 -274 45 -418 52 -695 18 -735 -102 -1495 -347 -2205
-552 -1596 -1743 -3000 -3305 -3895 -453 -259 -738 -372 -945 -374 -83 0 -102
3 -153 26 -31 15 -59 33 -61 40 -128 427 -309 904 -491 1297 -35 77 -86 196
-111 263 -524 1381 -1532 2541 -3144 3617 -398 266 -991 621 -1063 637 -18 3
-102 41 -187 84 -205 103 -458 214 -715 315 -1494 589 -3134 793 -4750 589
-1786 -225 -3486 -956 -4879 -2098 -259 -213 -427 -366 -712 -650 -284 -285
-438 -453 -650 -712 -1213 -1480 -1955 -3295 -2128 -5204 -54 -595 -47 -1353
20 -1945 190 -1700 830 -3312 1856 -4680 501 -667 1026 -1209 1715 -1768 96
-78 219 -179 274 -223 262 -214 501 -365 1069 -673 1301 -708 2606 -1084 4095
-1182 231 -15 887 -15 1120 0 634 41 1159 120 1763 266 103 24 264 61 357 80
1275 269 2556 773 3785 1488 805 469 1306 862 2021 1584 146 147 332 342 415
433 875 964 1692 2101 2343 3260 480 852 983 1957 1421 3120 433 1150 872
2581 1094 3566 433 1924 611 4045 491 5859 -93 1400 -341 2567 -789 3723 -182
468 -308 835 -414 1207 -70 243 -113 415 -118 466 -2 27 -10 65 -18 84 -56
134 -251 1367 -266 1685 -14 294 11 815 56 1165 104 820 306 1363 700 1885
487 644 1159 1055 1864 1140 212 25 535 10 745 -37 383 -84 766 -272 1105
-543 225 -180 502 -484 676 -740 424 -626 637 -1267 695 -2095 15 -216 6 -800
-16 -1020 -59 -604 -169 -1195 -384 -2060 -179 -722 -484 -1646 -1166 -3545
-765 -2129 -1039 -2915 -1300 -3739 -252 -796 -459 -1548 -569 -2061 -92 -433
-138 -663 -175 -870 -241 -1363 -264 -2776 -65 -4150 350 -2423 1386 -4706
2979 -6565 311 -363 813 -881 1135 -1171 1275 -1149 2670 -1996 4235 -2574
3045 -1124 6436 -1059 9515 182 646 261 1339 607 1930 963 1501 907 2798 2074
3831 3450 1396 1858 2246 4009 2478 6270 40 383 53 628 58 1082 6 456 -2 679
-33 998 -103 1063 -394 2172 -876 3340 -54 131 -94 256 -174 545 -241 865
-484 1698 -1094 3755 -818 2759 -1105 3760 -1374 4790 -118 450 -143 595 -208
1215 -29 282 -32 332 -32 655 1 444 20 710 80 1070 158 951 570 1723 1219
2284 718 620 1615 848 2486 631 981 -245 1608 -966 1879 -2160 166 -733 172
-1444 19 -2290 -58 -323 -171 -773 -234 -930 -18 -47 -65 -195 -105 -330 -146
-498 -229 -714 -460 -1195 -223 -463 -500 -1102 -747 -1720 -345 -861 -391
-994 -438 -1270 -110 -648 -7 -1351 292 -1986 261 -553 707 -1049 1280 -1423
414 -269 922 -500 1470 -666 605 -184 1164 -287 2443 -450 1479 -188 2101
-317 2805 -582 1113 -419 1904 -1068 2323 -1907 410 -820 471 -1811 167 -2701
-428 -1250 -1590 -2222 -2955 -2474 -265 -49 -403 -60 -720 -60 -316 0 -466
12 -730 60 -1062 192 -1970 754 -2584 1598 -108 148 -131 187 -146 254 -7 29
-14 52 -16 50 -5 -6 34 -361 62 -563 460 -3319 2319 -6272 5124 -8144 1645
-1098 3535 -1757 5520 -1925 625 -53 1352 -53 1985 0 1670 140 3266 626 4727
1438 1257 700 2396 1644 3319 2752 1519 1823 2447 4055 2663 6404 37 397 41
511 41 1090 0 579 -4 690 -41 1090 -203 2218 -1045 4343 -2419 6105 -636 816
-1403 1569 -2220 2182 -1667 1248 -3572 2014 -5645 2268 -493 60 -839 79
-1415 79 -477 0 -650 -6 -1035 -40 -1280 -110 -2541 -435 -3730 -958 -211 -93
-1370 -668 -1630 -808 -663 -359 -1295 -764 -1880 -1206 -113 -85 -401 -311
-640 -501 -556 -444 -690 -547 -955 -736 -580 -414 -1095 -688 -1608 -854
-476 -154 -986 -212 -1408 -161 -583 72 -1156 367 -1511 779 -567 656 -608
1493 -117 2384 261 473 638 931 1254 1520 753 722 1336 1208 2980 2487 1651
1284 2310 1840 3044 2565 961 951 1645 1824 2180 2785 175 315 275 528 612
1305 761 1755 1072 3706 904 5665 -224 2589 -1336 5069 -3130 6973 -1566 1664
-3535 2818 -5745 3367 -649 161 -1290 262 -2020 317 -297 22 -1262 25 -1545 5
-1068 -77 -1985 -252 -2918 -558 -582 -191 -1021 -371 -1572 -644 -873 -433
-1638 -936 -2385 -1569 -484 -410 -1031 -963 -1436 -1451 -934 -1127 -1639
-2391 -2099 -3765 -509 -1517 -699 -3135 -560 -4745 123 -1413 506 -2805 1119
-4065 120 -245 386 -761 511 -990 882 -1611 2396 -3908 4080 -6190 438 -593
664 -934 1008 -1516 387 -657 710 -1289 1397 -2734 367 -773 564 -1176 780
-1600 606 -1190 929 -2008 1118 -2825 131 -563 213 -1234 191 -1556 -56 -836
-239 -1281 -563 -1369 -100 -27 -253 -18 -375 24 -312 106 -721 390 -1275 890
-298 268 -550 510 -1376 1320 -1299 1274 -1987 1901 -2790 2541 -1550 1234
-2966 1965 -4320 2228 -1354 264 -2682 47 -4140 -674 -1375 -680 -2736 -1723
-4585 -3513 -104 -102 -469 -458 -810 -791 -341 -334 -699 -681 -795 -772
-631 -596 -1070 -948 -1400 -1121 -218 -115 -351 -152 -516 -145 -94 4 -110 8
-178 41 -234 116 -385 448 -456 1003 -24 186 -24 235 -5 485 160 2021 918
4116 2297 6353 629 1020 1174 1799 2532 3621 801 1076 896 1196 1791 2265 751
898 1076 1299 1402 1730 635 841 1085 1567 1389 2246 35 79 115 233 178 342
1170 2036 1695 4355 1521 6712 -102 1377 -454 2739 -1030 3995 -1567 3415
-4692 5887 -8365 6620 -646 129 -1316 206 -1905 220 -115 3 -264 7 -330 8 -66
2 -250 0 -410 -4z"/>
<path d="M31075 72649 c-1478 -97 -2884 -658 -4011 -1600 -1632 -1363 -2544
-3359 -2501 -5474 19 -901 189 -1714 533 -2543 758 -1824 2303 -3266 4183
-3903 1315 -445 2742 -490 4076 -128 2433 661 4326 2594 4931 5034 338 1365
255 2810 -238 4120 -569 1511 -1654 2782 -3069 3595 -173 99 -524 273 -711
353 -746 316 -1504 495 -2313 547 -181 11 -700 11 -880 -1z"/>
</g>
</svg>
