<?xml version="1.0" standalone="no"?>
<!DOCTYPE svg PUBLIC "-//W3C//DTD SVG 20010904//EN"
 "http://www.w3.org/TR/2001/REC-SVG-20010904/DTD/svg10.dtd">
<svg version="1.0" xmlns="http://www.w3.org/2000/svg"
 width="3289.000000pt" height="2940.000000pt" viewBox="0 0 3289.000000 2940.000000"
 preserveAspectRatio="xMidYMid meet">

<g transform="translate(0.000000,2940.000000) scale(0.100000,-0.100000)"
fill="#000000" stroke="none">
<path d="M19680 29394 c-1966 -25 -3558 -182 -4828 -475 -1909 -440 -3783
-1403 -5352 -2749 -506 -434 -1048 -977 -1497 -1499 -1680 -1953 -2816 -4421
-3113 -6766 -97 -766 -105 -1572 -24 -2270 132 -1144 494 -2176 1069 -3045
612 -927 1509 -1691 2545 -2170 74 -34 263 -125 420 -200 157 -76 344 -164
415 -195 811 -355 1686 -560 2788 -654 120 -10 220 -21 222 -23 3 -3 -10 -40
-29 -84 -19 -43 -161 -378 -316 -744 -390 -918 -718 -1676 -804 -1855 -386
-802 -1217 -2030 -1821 -2690 -1002 -1095 -2218 -1858 -3440 -2160 -458 -113
-796 -151 -1285 -142 -319 5 -455 17 -705 62 -973 176 -2050 874 -2678 1737
-358 491 -567 1013 -627 1563 -16 145 -13 477 5 629 65 544 266 1058 630 1606
498 752 1180 1368 2041 1846 316 175 574 293 999 456 224 86 186 79 -79 -14
-1170 -411 -2088 -967 -2792 -1691 -633 -650 -1048 -1395 -1263 -2267 -209
-848 -210 -1672 -1 -2399 145 -505 397 -977 744 -1398 187 -225 495 -515 763
-716 750 -564 1765 -953 2718 -1041 451 -42 1185 -55 1560 -28 1600 117 2883
573 4040 1438 323 241 572 463 940 835 489 495 832 908 1152 1386 332 494 522
844 1196 2193 564 1129 967 1982 1463 3095 l182 410 214 17 c1630 130 3477
427 5587 898 200 44 366 79 369 76 3 -3 56 -277 118 -608 61 -332 142 -758
178 -948 36 -190 111 -592 166 -895 289 -1575 415 -2190 605 -2940 364 -1438
789 -2424 1319 -3055 155 -185 382 -409 556 -547 507 -405 1108 -641 1765
-694 182 -14 580 -6 743 15 880 116 1552 465 2144 1112 663 726 1243 1680
1713 2821 129 311 311 801 302 810 -2 2 -17 -32 -32 -74 -48 -133 -179 -459
-268 -668 -369 -866 -746 -1542 -1124 -2016 -130 -162 -465 -501 -621 -627
-410 -332 -770 -494 -1257 -564 -55 -8 -189 -13 -340 -13 -221 0 -263 3 -363
23 -294 59 -558 190 -800 394 -630 534 -1156 1706 -1621 3609 -192 783 -376
1694 -665 3294 -58 319 -164 893 -236 1275 -71 382 -126 697 -122 701 9 8 330
51 671 89 1133 126 2141 139 3026 39 1371 -154 2424 -588 3126 -1289 533 -533
844 -1178 955 -1985 10 -76 19 -231 23 -420 l6 -300 9 175 c17 362 -32 776
-135 1142 -301 1064 -1064 1880 -2245 2400 -1289 568 -3108 780 -5328 623
-110 -8 -201 -13 -202 -12 -4 4 -664 3541 -661 3543 1 1 94 9 207 18 2020 163
3905 704 5461 1566 1211 672 2212 1529 2983 2555 780 1038 1308 2243 1580
3605 100 502 142 872 153 1335 23 1031 -215 1921 -710 2665 -267 400 -651 796
-1074 1107 -1056 778 -2617 1289 -4608 1507 -481 53 -928 85 -1535 111 -201 9
-662 29 -1025 45 -1165 52 -1751 74 -2435 90 -463 10 -1465 18 -1810 14z
m-1580 -679 c427 -62 780 -225 1030 -475 183 -183 292 -389 352 -663 19 -87
22 -133 22 -312 1 -219 -6 -284 -51 -484 -56 -258 -56 -256 -1355 -3446 -1905
-4677 -3619 -8845 -4861 -11825 -529 -1267 -564 -1351 -574 -1360 -15 -14
-429 39 -668 86 -397 77 -637 161 -1060 369 -982 483 -1809 1160 -2433 1990
-557 742 -954 1621 -1111 2461 -105 561 -147 1081 -138 1699 7 489 35 821 108
1275 280 1756 1065 3510 2331 5205 1482 1985 3574 3765 5613 4775 876 434
1591 662 2275 724 89 8 417 -4 520 -19z m7425 6 c797 -59 1413 -175 2003 -376
1193 -406 2007 -1139 2422 -2180 377 -946 419 -2168 124 -3620 -247 -1217
-719 -2382 -1377 -3399 -960 -1484 -2296 -2652 -3827 -3344 -936 -423 -1841
-650 -2930 -733 -213 -17 -4280 -25 -4280 -9 0 22 4531 11544 4612 11728 496
1128 1029 1682 1803 1877 72 18 184 40 250 49 66 9 134 18 150 20 59 8 903 -3
1050 -13z m-5745 -14006 c78 -21 211 -81 274 -124 136 -94 259 -252 313 -402
24 -65 98 -446 322 -1649 159 -860 289 -1565 288 -1567 -1 -1 -101 -18 -222
-38 -322 -52 -750 -128 -1075 -191 -1546 -300 -2830 -474 -4334 -589 -83 -7
-89 -6 -84 11 3 11 74 181 158 379 84 198 251 599 372 890 403 971 492 1172
631 1413 399 691 920 1194 1576 1521 377 189 829 318 1256 361 144 14 448 5
525 -15z"/>
<path d="M5618 9933 c7 -3 16 -2 19 1 4 3 -2 6 -13 5 -11 0 -14 -3 -6 -6z"/>
<path d="M5368 9883 c7 -3 16 -2 19 1 4 3 -2 6 -13 5 -11 0 -14 -3 -6 -6z"/>
<path d="M31042 6840 c0 -19 2 -27 5 -17 2 9 2 25 0 35 -3 9 -5 1 -5 -18z"/>
</g>
</svg>
