<?xml version="1.0" standalone="no"?>
<!DOCTYPE svg PUBLIC "-//W3C//DTD SVG 20010904//EN"
 "http://www.w3.org/TR/2001/REC-SVG-20010904/DTD/svg10.dtd">
<svg version="1.0" xmlns="http://www.w3.org/2000/svg"
 width="4523.000000pt" height="1032.000000pt" viewBox="0 0 4523.000000 1032.000000"
 preserveAspectRatio="xMidYMid meet">

<g transform="translate(0.000000,1032.000000) scale(0.100000,-0.100000)"
fill="#000000" stroke="none">
<path d="M5276 10215 c-100 -318 -401 -717 -771 -1020 -180 -148 -212 -181
-253 -263 -34 -69 -37 -84 -40 -176 -4 -107 13 -185 58 -258 35 -58 118 -133
184 -168 77 -39 83 -52 88 -171 4 -73 10 -97 40 -161 46 -96 114 -165 213
-214 65 -32 86 -37 168 -42 113 -6 173 9 270 68 l68 41 67 -39 c85 -51 157
-72 248 -72 256 0 454 205 454 472 0 67 11 83 78 117 206 104 303 348 222 563
-32 87 -82 145 -225 264 -154 127 -394 365 -488 484 -173 218 -320 488 -349
645 -2 12 -15 -18 -32 -70z"/>
<path d="M17891 9450 c-529 -42 -1072 -196 -1613 -459 -903 -439 -1692 -1145
-2237 -2002 -223 -351 -350 -645 -417 -966 -24 -111 -28 -152 -28 -313 -1
-203 10 -280 64 -442 158 -474 591 -798 1180 -884 174 -25 497 -16 681 20 776
148 1458 640 1972 1422 426 648 563 1213 386 1602 -89 197 -257 335 -459 378
-91 19 -273 14 -365 -11 -258 -70 -414 -301 -351 -518 28 -96 115 -162 229
-174 71 -7 130 11 179 55 103 93 117 242 30 342 -52 62 -103 84 -189 85 l-72
0 49 31 c111 70 307 103 443 74 196 -40 355 -208 413 -435 24 -96 24 -298 0
-425 -74 -385 -345 -880 -723 -1321 -592 -690 -1409 -1089 -2063 -1009 -454
56 -746 310 -836 726 -23 107 -23 345 0 474 103 583 484 1263 1112 1986 1002
1153 2245 1793 3184 1638 477 -79 799 -377 902 -834 33 -151 33 -445 -1 -635
-54 -308 -160 -600 -372 -1025 -598 -1205 -1372 -2397 -2118 -3260 -227 -263
-575 -606 -789 -777 l-64 -51 -42 24 c-68 38 -167 57 -301 56 -133 0 -190 -14
-237 -59 -47 -45 -35 -108 25 -139 126 -66 394 -69 626 -8 554 145 1363 725
2495 1789 534 501 1655 1629 2531 2545 940 982 1506 1493 2069 1865 510 336
932 495 1317 495 469 0 904 -246 1014 -574 32 -99 39 -194 21 -300 -9 -54 -16
-106 -16 -116 0 -28 27 -50 61 -50 26 0 33 6 49 44 51 115 64 306 30 440 -33
130 -91 227 -200 337 -171 173 -376 279 -664 341 -146 32 -450 32 -616 1 -621
-119 -1217 -480 -2066 -1255 -412 -375 -807 -769 -1889 -1888 -1187 -1226
-1830 -1861 -2400 -2371 -578 -517 -1050 -867 -1400 -1039 -193 -95 -236 -109
-134 -42 550 358 1244 1016 1838 1741 782 955 1432 2103 1620 2862 141 569 92
1026 -149 1385 -70 103 -223 255 -331 326 -105 71 -283 156 -409 198 -105 34
-289 73 -420 90 -122 15 -416 20 -549 10z"/>
<path d="M35931 9450 c-529 -42 -1072 -196 -1613 -459 -903 -439 -1692 -1145
-2237 -2002 -223 -351 -350 -645 -417 -966 -24 -111 -28 -152 -28 -313 -1
-203 10 -280 64 -442 158 -474 591 -798 1180 -884 174 -25 497 -16 681 20 776
148 1458 640 1972 1422 426 648 563 1213 386 1602 -89 197 -257 335 -459 378
-91 19 -273 14 -365 -11 -258 -70 -414 -301 -351 -518 28 -96 115 -162 229
-174 71 -7 130 11 179 55 103 93 117 242 30 342 -52 62 -103 84 -189 85 l-72
0 49 31 c111 70 307 103 443 74 196 -40 355 -208 413 -435 24 -96 24 -298 0
-425 -74 -385 -345 -880 -723 -1321 -592 -690 -1409 -1089 -2063 -1009 -454
56 -746 310 -836 726 -23 107 -23 345 0 474 103 583 484 1263 1112 1986 1002
1153 2245 1793 3184 1638 477 -79 799 -377 902 -834 33 -151 33 -445 -1 -635
-54 -308 -160 -600 -372 -1025 -598 -1205 -1372 -2397 -2118 -3260 -227 -263
-575 -606 -789 -777 l-64 -51 -42 24 c-68 38 -167 57 -301 56 -133 0 -190 -14
-237 -59 -47 -45 -35 -108 25 -139 126 -66 394 -69 626 -8 554 145 1363 725
2495 1789 534 501 1655 1629 2531 2545 940 982 1506 1493 2069 1865 510 336
932 495 1317 495 469 0 904 -246 1014 -574 32 -99 39 -194 21 -300 -9 -54 -16
-106 -16 -116 0 -28 27 -50 61 -50 26 0 33 6 49 44 51 115 64 306 30 440 -33
130 -91 227 -200 337 -171 173 -376 279 -664 341 -146 32 -450 32 -616 1 -621
-119 -1217 -480 -2066 -1255 -412 -375 -807 -769 -1889 -1888 -1187 -1226
-1830 -1861 -2400 -2371 -578 -517 -1050 -867 -1400 -1039 -193 -95 -236 -109
-134 -42 550 358 1244 1016 1838 1741 782 955 1432 2103 1620 2862 141 569 92
1026 -149 1385 -70 103 -223 255 -331 326 -105 71 -283 156 -409 198 -105 34
-289 73 -420 90 -122 15 -416 20 -549 10z"/>
<path d="M1235 9283 c-211 -25 -366 -63 -528 -129 -192 -78 -314 -153 -435
-268 -128 -122 -202 -244 -242 -400 -49 -193 -10 -358 114 -482 101 -101 227
-144 365 -124 132 19 188 47 369 189 377 293 734 510 975 593 85 29 102 32
222 32 151 0 218 -15 340 -75 159 -78 281 -203 409 -419 135 -228 271 -520
439 -945 328 -830 523 -1175 765 -1353 265 -196 521 -190 744 17 144 132 285
368 309 516 31 187 -69 315 -247 315 -176 0 -296 -200 -215 -358 46 -88 126
-136 226 -136 73 0 116 15 164 58 l23 21 -22 -45 c-79 -156 -214 -306 -326
-361 -63 -31 -76 -34 -164 -34 -88 0 -101 3 -163 33 -243 120 -477 441 -707
967 -29 66 -107 255 -175 420 -260 634 -382 885 -556 1140 -310 456 -827 768
-1371 825 -89 9 -249 11 -313 3z"/>
<path d="M9117 9269 c-299 -25 -618 -139 -883 -318 -224 -150 -377 -304 -529
-531 -165 -247 -287 -498 -553 -1145 -231 -561 -312 -728 -457 -945 -147 -221
-262 -337 -400 -405 -175 -87 -312 -62 -466 83 -62 58 -164 193 -203 269 l-16
32 52 -32 c47 -29 58 -32 132 -32 90 1 122 13 177 67 93 94 96 252 6 346 -53
56 -102 76 -182 76 -178 1 -280 -150 -234 -342 31 -127 153 -333 267 -450 222
-229 478 -256 744 -79 167 111 304 287 456 584 104 205 170 355 331 755 319
794 505 1135 707 1302 145 120 303 177 489 178 143 1 230 -22 412 -112 250
-122 533 -308 843 -554 103 -82 158 -111 258 -137 90 -23 149 -24 225 -4 80
21 125 46 189 104 93 85 148 215 148 350 0 137 -81 339 -189 467 -169 202
-487 372 -831 443 -86 18 -322 43 -374 40 -12 -1 -65 -5 -119 -10z"/>
<path d="M40956 6938 c-7 -13 -127 -213 -266 -445 l-253 -423 -263 0 -264 0 0
-65 0 -65 220 0 c121 0 220 -3 220 -6 0 -3 -154 -263 -341 -577 -323 -541
-351 -583 -503 -777 -382 -487 -791 -952 -930 -1057 -169 -127 -300 -138 -380
-30 -32 43 -35 171 -6 257 24 74 15 58 295 515 277 451 925 1524 925 1530 0 3
-132 5 -292 5 l-293 -1 -106 -177 c-58 -97 -257 -427 -441 -732 -184 -305
-362 -604 -396 -665 -178 -320 -176 -592 8 -776 167 -168 462 -203 655 -77 75
48 391 369 564 573 85 99 160 187 168 195 7 8 2 -14 -13 -50 -108 -266 -78
-498 85 -654 108 -103 247 -152 406 -143 109 6 180 31 267 94 82 59 299 278
463 467 180 207 187 215 181 191 -13 -48 -26 -166 -26 -240 0 -268 128 -450
348 -496 84 -17 270 -6 357 21 236 74 359 157 633 424 l152 149 -6 -69 c-12
-143 40 -288 141 -389 73 -72 138 -109 241 -135 126 -33 264 -21 367 31 141
72 467 416 879 931 335 419 376 480 337 503 -30 19 -63 -13 -205 -192 -416
-525 -811 -970 -950 -1069 -102 -73 -165 -97 -240 -92 -54 3 -69 8 -95 33 -44
42 -59 83 -59 163 0 72 19 151 52 217 12 22 85 144 163 270 248 401 1014 1662
1022 1682 4 10 -55 13 -288 13 l-294 -1 -95 -161 -94 -160 -12 43 c-47 187
-196 278 -451 279 -176 0 -334 -41 -550 -145 -73 -35 -172 -87 -220 -116 -293
-177 -602 -472 -795 -761 -72 -106 -180 -312 -219 -417 -25 -65 -115 -180
-358 -456 -345 -391 -480 -494 -632 -483 -101 7 -149 72 -149 200 0 50 8 93
24 139 14 41 121 228 278 485 140 230 427 706 638 1057 l383 637 279 0 278 0
0 65 0 65 -235 0 c-129 0 -235 2 -235 4 0 2 115 196 256 432 141 236 259 435
261 441 4 10 -57 13 -286 13 -291 0 -291 0 -305 -22z m1811 -1329 c40 -15 81
-57 95 -98 18 -55 12 -166 -14 -256 -20 -65 -59 -137 -209 -385 -102 -168
-214 -354 -250 -414 -131 -221 -474 -621 -674 -785 -187 -153 -347 -231 -474
-231 -74 0 -116 26 -143 87 -48 110 8 359 147 648 251 522 877 1230 1230 1391
110 51 227 68 292 43z"/>
<path d="M21210 6491 c-216 -70 -243 -349 -45 -454 30 -16 58 -21 110 -21 78
0 130 21 176 71 48 51 63 92 63 168 0 101 -42 173 -128 217 -43 22 -136 32
-176 19z"/>
<path d="M25420 6491 c-216 -70 -243 -349 -45 -454 30 -16 58 -21 110 -21 78
0 130 21 176 71 48 51 63 92 63 168 0 101 -42 173 -128 217 -43 22 -136 32
-176 19z"/>
<path d="M39250 6491 c-216 -70 -243 -349 -45 -454 30 -16 58 -21 110 -21 78
0 130 21 176 71 48 51 63 92 63 168 0 101 -42 173 -128 217 -43 22 -136 32
-176 19z"/>
<path d="M20679 5622 c-58 -97 -257 -427 -441 -732 -184 -305 -362 -604 -396
-665 -178 -320 -176 -592 8 -776 168 -169 463 -203 655 -77 28 18 112 93 188
167 75 74 137 132 137 129 0 -3 -47 -86 -104 -184 l-104 -179 286 -3 c221 -2
289 1 298 10 6 7 152 256 324 553 l313 540 176 220 c276 345 570 683 738 847
128 125 278 208 377 208 55 0 118 -39 144 -90 20 -38 23 -56 19 -110 -7 -92
-32 -160 -106 -280 -302 -494 -625 -1047 -659 -1127 -52 -123 -67 -279 -37
-392 87 -328 443 -478 756 -320 135 68 406 336 668 662 30 37 56 66 57 64 2
-2 -8 -39 -23 -82 -30 -96 -41 -234 -24 -317 48 -231 261 -392 516 -391 106 1
195 25 270 75 121 79 460 439 771 818 171 209 391 492 409 526 25 49 -23 87
-67 52 -8 -7 -82 -98 -164 -203 -366 -467 -780 -938 -918 -1042 -169 -127
-300 -138 -380 -30 -32 43 -35 171 -6 257 24 74 15 58 295 515 277 451 925
1524 925 1530 0 3 -132 5 -292 5 l-293 -1 -335 -557 c-304 -504 -348 -573
-474 -732 -262 -328 -488 -589 -705 -813 -194 -199 -312 -277 -422 -277 -110
0 -165 69 -163 205 2 105 21 155 141 352 366 603 578 967 626 1072 151 333 43
609 -283 723 -71 25 -226 35 -303 19 -169 -36 -359 -195 -710 -596 -77 -88
-149 -169 -160 -180 -20 -20 -20 -20 0 15 11 19 116 198 232 396 116 199 211
365 211 368 0 4 -131 5 -292 4 l-292 -3 -485 -837 -486 -838 -113 -130 c-184
-212 -378 -415 -445 -466 -170 -128 -301 -139 -381 -31 -32 43 -35 171 -6 257
24 74 15 58 295 515 277 451 925 1524 925 1530 0 3 -132 5 -292 5 l-293 -1
-106 -177z"/>
<path d="M29075 5780 c-395 -79 -840 -353 -1138 -700 -214 -249 -344 -499
-413 -795 -24 -103 -28 -142 -28 -275 -1 -120 3 -170 17 -220 80 -290 308
-461 650 -489 241 -19 530 45 731 163 274 161 751 672 1075 1154 69 102 80
132 56 152 -24 20 -59 -1 -102 -62 -234 -328 -427 -563 -623 -758 -218 -219
-411 -356 -601 -427 -340 -128 -625 -57 -691 172 -16 57 -13 231 8 346 9 54
35 153 58 221 l41 123 85 7 c438 38 876 253 1220 598 159 159 229 268 266 411
47 182 -59 343 -256 388 -70 16 -254 12 -355 -9z m425 -178 c80 -59 78 -186
-7 -341 -49 -92 -108 -164 -210 -262 -223 -212 -619 -411 -950 -478 -100 -21
-153 -26 -153 -16 0 3 28 52 62 108 157 260 377 511 632 719 309 253 523 345
626 270z"/>
<path d="M1865 5509 c-230 -56 -409 -200 -516 -414 -68 -137 -99 -264 -106
-430 -9 -210 22 -348 122 -550 121 -244 298 -418 501 -491 84 -31 106 -30 31
0 -158 65 -298 215 -373 400 -56 137 -77 266 -71 436 5 161 24 245 78 353 70
138 154 218 300 286 270 125 565 85 862 -116 124 -84 235 -182 391 -346 413
-432 790 -681 1133 -748 l63 -12 30 -94 c262 -819 384 -1538 325 -1927 -49
-324 -205 -495 -532 -583 -91 -25 -112 -27 -308 -27 -197 0 -216 2 -310 27
-204 55 -384 165 -566 347 -128 128 -228 257 -428 553 -156 231 -246 334 -329
374 -48 24 -68 27 -141 27 -117 -1 -182 -27 -265 -105 -44 -41 -72 -77 -92
-121 -26 -57 -29 -73 -29 -168 0 -95 3 -110 28 -163 67 -136 202 -239 512
-392 405 -199 854 -349 1245 -415 157 -27 449 -37 572 -21 445 59 666 279 754
752 22 116 30 472 15 651 -30 359 -129 863 -240 1216 l-29 92 84 44 c214 114
434 342 505 524 17 43 23 79 23 147 1 83 -2 96 -32 157 -80 164 -289 289 -529
318 -220 27 -373 -36 -436 -179 -77 -172 -49 -430 85 -794 22 -59 38 -110 35
-113 -10 -11 -112 16 -188 50 -92 40 -232 122 -314 185 -93 72 -318 295 -550
546 -337 365 -484 497 -680 613 -206 121 -428 160 -630 111z m2876 -547 c83
-29 117 -49 172 -100 209 -196 97 -507 -268 -750 -98 -65 -186 -106 -196 -91
-4 7 -22 62 -39 122 -80 271 -109 527 -76 657 27 105 67 152 156 181 40 14
190 2 251 -19z"/>
<path d="M8505 5489 c-278 -43 -541 -223 -918 -629 -354 -380 -401 -429 -519
-538 -141 -129 -186 -162 -319 -238 -145 -82 -319 -139 -319 -104 0 5 13 42
29 82 88 222 131 414 131 580 -1 167 -28 256 -101 329 -123 123 -437 117 -681
-13 -86 -45 -191 -150 -225 -224 -23 -51 -27 -72 -27 -154 0 -80 4 -105 26
-156 40 -96 92 -169 196 -276 115 -119 198 -183 308 -240 l81 -42 -29 -89
c-43 -138 -123 -464 -157 -637 -72 -372 -95 -615 -88 -928 6 -305 37 -463 122
-637 134 -274 379 -411 775 -431 430 -23 1091 150 1685 441 217 106 333 179
418 263 91 90 129 165 135 272 14 246 -172 432 -416 418 -160 -10 -221 -68
-501 -482 -78 -114 -176 -251 -218 -303 -342 -425 -723 -599 -1188 -542 -279
34 -506 162 -598 336 -76 145 -103 314 -94 592 9 250 34 430 109 771 64 296
236 903 261 926 7 6 41 16 77 23 100 20 174 46 315 115 257 126 432 261 735
566 118 119 250 247 293 284 162 139 359 249 522 291 104 27 277 26 378 -3
273 -78 439 -260 493 -540 32 -169 9 -402 -57 -574 -64 -164 -201 -323 -339
-392 -91 -45 -70 -47 32 -2 197 86 358 257 479 510 65 137 99 269 106 417 17
339 -116 653 -343 815 -160 114 -388 172 -569 143z m-2307 -554 c73 -31 112
-87 133 -194 16 -84 6 -254 -25 -403 -24 -120 -81 -323 -96 -348 -11 -18 -82
14 -201 91 -223 146 -369 352 -369 520 0 146 126 286 301 333 74 20 210 20
257 1z"/>
<path d="M2095 4016 c-5 -3 -22 -7 -38 -10 -34 -8 -103 -69 -124 -110 -9 -17
-16 -56 -17 -86 0 -87 47 -161 124 -194 l35 -15 -60 -2 -60 -2 64 -9 c81 -13
179 9 231 50 119 97 103 284 -32 353 -36 18 -104 32 -123 25z"/>
<path d="M8443 3956 c-69 -33 -105 -87 -111 -166 -6 -76 10 -120 60 -169 50
-50 115 -72 212 -69 63 1 66 2 26 7 l-45 6 31 13 c51 22 105 85 119 139 46
177 -126 318 -292 239z"/>
<path d="M8688 3563 c6 -2 18 -2 25 0 6 3 1 5 -13 5 -14 0 -19 -2 -12 -5z"/>
</g>
</svg>
