<?xml version="1.0" standalone="no"?>
<!DOCTYPE svg PUBLIC "-//W3C//DTD SVG 20010904//EN"
 "http://www.w3.org/TR/2001/REC-SVG-20010904/DTD/svg10.dtd">
<svg version="1.0" xmlns="http://www.w3.org/2000/svg"
 width="4033.000000pt" height="3586.000000pt" viewBox="0 0 4033.000000 3586.000000"
 preserveAspectRatio="xMidYMid meet">

<g transform="translate(0.000000,3586.000000) scale(0.100000,-0.100000)"
fill="#000000" stroke="none">
<path d="M18110 35849 c-502 -17 -1000 -75 -1460 -170 -274 -57 -690 -170
-690 -188 0 -41 150 -857 201 -1094 183 -855 432 -1616 804 -2467 110 -251
133 -329 155 -525 18 -173 -2 -221 -115 -275 -75 -36 -147 -45 -250 -31 -74
11 -91 18 -255 112 -194 112 -263 159 -389 264 -659 549 -1373 1786 -1963
3400 -44 121 -81 221 -83 223 -9 10 -669 -176 -1080 -303 -2121 -657 -3845
-1566 -5010 -2642 -841 -777 -1413 -1605 -1752 -2537 -300 -827 -389 -1753
-242 -2534 12 -62 20 -114 18 -116 -2 -2 -84 -49 -183 -105 -563 -321 -1075
-687 -1581 -1130 -188 -164 -676 -658 -841 -851 -789 -923 -1248 -1801 -1528
-2925 -299 -1200 -325 -2547 -72 -3682 395 -1768 1409 -3092 3001 -3918 969
-503 2180 -815 3435 -885 107 -6 409 -10 671 -8 l476 3 -88 150 c-377 635
-738 1560 -1009 2583 -158 599 -322 1375 -406 1927 -15 99 -30 183 -34 188 -4
4 -53 -4 -111 -18 -311 -75 -613 -83 -884 -24 -135 29 -207 55 -350 125 -325
159 -568 416 -756 798 -249 507 -318 1173 -193 1854 137 750 506 1377 1007
1712 104 69 282 153 392 185 160 46 262 58 450 52 229 -8 384 -43 608 -139 65
-27 120 -48 121 -47 2 2 22 90 46 194 152 681 421 1627 622 2195 220 620 410
1026 640 1366 79 118 84 121 341 206 612 201 1477 408 2063 493 1591 229 3267
276 4784 134 1028 -96 1861 -231 3080 -498 604 -132 971 -199 1450 -265 1465
-202 2860 -192 4185 30 948 158 1922 484 3740 1249 231 97 463 194 515 215
178 70 245 86 207 49 -14 -14 -3 -35 110 -215 666 -1057 1307 -2244 1840
-3404 290 -630 488 -1146 633 -1647 11 -40 23 -73 26 -73 2 0 26 11 53 25 72
36 266 101 372 124 481 104 918 -7 1305 -332 437 -366 772 -1038 868 -1742
107 -782 -32 -1490 -394 -2007 -85 -122 -280 -317 -395 -395 -399 -270 -879
-338 -1429 -204 l-116 28 -5 -21 c-2 -11 -27 -160 -55 -331 -306 -1850 -810
-3415 -1430 -4445 -48 -80 -86 -147 -84 -149 10 -11 771 72 1131 124 1931 281
3382 840 4423 1705 149 124 426 393 554 540 702 798 1127 1806 1276 3020 70
573 79 1320 24 1935 -185 2073 -1166 3847 -2848 5150 -525 407 -1179 795
-1707 1015 l-125 52 -12 106 c-32 283 -116 741 -198 1072 -302 1220 -859 2305
-1667 3250 -536 626 -1192 1195 -1967 1706 -422 277 -810 498 -1325 754 -833
413 -1694 750 -2760 1081 l-290 90 -21 -24 c-33 -38 -99 -199 -269 -652 -278
-743 -457 -1169 -665 -1586 -301 -603 -571 -1014 -875 -1327 -213 -220 -357
-329 -604 -456 -132 -68 -136 -69 -225 -74 -107 -5 -156 6 -222 51 -67 45
-104 117 -104 202 0 89 30 226 99 448 340 1096 620 2110 781 2820 32 144 88
386 124 537 61 258 106 473 106 505 0 22 -315 121 -601 189 -473 113 -941 175
-1487 196 -236 9 -619 0 -734 -16 l-48 -7 0 -326 c0 -917 -95 -1888 -310
-3165 -102 -611 -171 -816 -325 -971 -92 -93 -112 -100 -290 -100 -141 0 -153
2 -206 26 -73 34 -114 77 -185 191 -213 343 -309 696 -409 1501 -79 636 -85
772 -85 1924 l0 951 -27 6 c-33 7 -540 26 -633 24 -36 -1 -162 -5 -280 -9z"/>
<path d="M29400 27593 c-85 -33 -828 -338 -1260 -518 -1141 -474 -1751 -708
-2350 -900 -988 -318 -1822 -480 -2695 -526 -250 -13 -873 -7 -1150 11 -841
54 -1721 188 -2735 416 -365 82 -494 109 -840 174 -1281 240 -2433 374 -3780
441 -335 16 -1425 23 -1755 10 -159 -6 -472 -15 -695 -21 -1147 -28 -1258 -33
-1594 -71 -231 -26 -361 -51 -489 -95 -211 -74 -344 -167 -412 -288 -88 -158
-191 -445 -345 -966 -55 -184 -122 -409 -150 -500 -68 -225 -305 -1188 -349
-1420 -48 -256 -76 -510 -120 -1118 -29 -386 -35 -422 -66 -422 -7 0 -105 57
-216 127 -416 260 -632 343 -898 343 -145 0 -239 -22 -368 -85 -428 -211 -753
-825 -834 -1575 -15 -147 -16 -475 0 -605 95 -784 471 -1214 1061 -1215 249 0
438 48 997 251 82 30 94 32 106 19 10 -11 22 -109 41 -350 87 -1062 205 -1790
451 -2780 141 -567 395 -1459 496 -1745 78 -223 300 -638 377 -708 16 -14 344
-22 2892 -65 2895 -49 2956 -50 2987 -19 3 3 -11 34 -30 69 -94 167 -193 447
-337 948 -148 514 -179 689 -187 1055 -3 149 -1 286 6 360 63 655 318 1248
775 1802 114 138 397 420 546 544 290 243 659 490 1002 673 112 60 141 66 146
30 2 -17 -13 -31 -75 -70 -254 -157 -520 -347 -734 -524 -173 -144 -484 -459
-613 -620 -436 -547 -675 -1124 -748 -1810 -15 -147 -15 -579 1 -735 33 -318
85 -610 172 -955 90 -359 202 -689 260 -770 l29 -40 4223 0 4223 0 26 28 c32
32 240 549 328 812 155 462 226 858 237 1305 6 266 -3 421 -38 652 -79 522
-301 1049 -623 1477 -403 536 -968 966 -1568 1192 -71 26 -128 51 -128 56 0 4
12 15 26 24 30 20 23 23 254 -73 954 -395 1643 -977 2004 -1692 130 -258 208
-484 266 -771 91 -447 92 -964 4 -1490 -37 -220 -154 -587 -370 -1163 -74
-197 -134 -364 -134 -371 0 -11 507 -15 2982 -21 l2983 -7 52 57 c60 66 126
174 253 415 51 96 137 256 190 355 213 392 303 665 444 1335 217 1034 382
2190 467 3270 12 157 27 291 32 298 5 6 16 12 24 12 8 0 107 -33 221 -74 340
-122 512 -166 724 -188 227 -23 445 17 617 115 93 53 232 183 301 282 377 546
384 1577 15 2330 -103 211 -177 318 -315 455 -191 191 -355 268 -586 278 -72
3 -149 0 -190 -7 -200 -35 -417 -139 -805 -388 -138 -88 -180 -106 -194 -83
-3 6 -17 85 -30 178 -79 560 -131 778 -360 1517 -478 1537 -1008 2715 -1753
3895 -57 91 -111 174 -121 184 -37 43 -147 69 -201 49z m-13326 -4032 c277
-49 522 -162 703 -326 122 -109 239 -304 282 -469 24 -92 41 -250 41 -383 l0
-93 -1365 0 -1365 0 0 113 c0 341 109 611 333 823 198 189 482 312 814 354
117 15 424 4 557 -19z m9046 18 c348 -43 633 -170 836 -373 214 -214 313 -476
314 -828 l0 -88 -1365 0 -1365 0 0 83 c0 643 454 1115 1160 1206 95 12 323 13
420 0z m-4610 -684 c355 -72 671 -242 934 -502 54 -54 118 -127 141 -163 52
-80 87 -111 162 -142 l58 -23 3370 -5 3370 -5 40 -22 c117 -63 135 -171 64
-391 -59 -180 -149 -328 -290 -473 -499 -511 -1461 -808 -2824 -870 -286 -13
-1101 -7 -1410 11 -1185 68 -1912 270 -2281 635 -130 128 -202 252 -241 415
-67 276 -156 453 -296 591 -119 118 -421 291 -625 359 -553 185 -1090 71
-1597 -337 -179 -144 -286 -274 -300 -367 -12 -75 -74 -293 -100 -351 -70
-159 -236 -344 -415 -464 -420 -280 -1071 -441 -2035 -503 -420 -27 -1364 -14
-1985 28 -1171 78 -1925 335 -2380 811 -227 237 -349 480 -338 668 7 110 50
171 143 203 47 16 265 17 3440 22 l3390 5 57 27 c86 40 123 73 190 167 87 122
101 138 192 210 320 253 680 420 1026 475 120 19 429 14 540 -9z m-15 -1340
c494 -78 798 -368 880 -839 20 -118 20 -361 0 -441 -34 -132 -116 -252 -254
-372 -59 -51 -79 -63 -107 -63 -19 0 -37 6 -40 13 -2 7 18 75 45 150 61 165
76 247 68 389 -9 144 -30 236 -83 345 -85 178 -224 281 -474 351 -160 45 -241
55 -397 49 -173 -6 -297 -36 -439 -107 -153 -75 -245 -171 -333 -347 -67 -133
-86 -211 -86 -343 1 -100 4 -126 29 -195 32 -92 75 -168 140 -243 51 -59 54
-67 29 -76 -40 -16 -240 141 -330 259 -322 423 -229 984 212 1271 146 95 283
146 503 185 225 40 440 45 637 14z m2395 -4166 c0 -45 -28 -169 -57 -257 -217
-649 -1051 -1227 -1986 -1377 -213 -34 -606 -36 -901 -5 -1105 117 -1854 594
-2207 1402 -27 62 -49 124 -49 136 0 23 0 23 24 5 854 -663 1580 -992 2350
-1064 179 -17 521 -7 700 21 262 40 583 133 829 241 154 68 403 199 475 249
95 68 358 288 484 406 204 193 316 287 330 278 4 -3 8 -19 8 -35z"/>
<path d="M2400 11769 c-112 -12 -273 -52 -368 -89 -258 -104 -467 -313 -612
-615 -54 -112 -1230 -3183 -1321 -3450 -108 -318 -123 -470 -61 -649 40 -115
83 -185 167 -271 157 -160 397 -247 639 -232 119 8 191 27 301 81 187 92 339
257 466 506 24 46 89 195 145 330 l102 245 767 0 767 0 102 -246 c56 -135 121
-283 145 -330 127 -248 279 -413 466 -505 110 -54 182 -73 301 -81 242 -15
482 72 639 232 84 86 127 156 167 270 56 162 49 300 -28 553 -48 157 -1292
3420 -1354 3550 -70 146 -150 264 -249 365 -171 176 -365 274 -636 322 -109
20 -425 28 -545 14z m457 -2269 c106 -289 195 -533 199 -542 5 -17 -20 -18
-430 -18 -240 0 -436 1 -436 3 0 5 378 1038 390 1065 8 19 16 23 47 20 l37 -3
193 -525z"/>
<path d="M6856 11769 c-292 -40 -521 -169 -682 -383 -59 -78 -127 -219 -159
-330 -28 -99 -575 -3358 -601 -3583 -11 -93 -15 -190 -12 -298 4 -147 7 -167
35 -248 42 -119 85 -186 172 -269 56 -54 95 -81 165 -113 142 -67 204 -79 391
-79 180 1 257 16 387 77 199 93 351 280 418 517 12 41 97 512 189 1045 l168
970 39 0 39 0 281 -715 c155 -393 304 -762 330 -820 107 -232 258 -403 427
-484 139 -67 205 -81 382 -80 126 0 163 4 230 23 247 70 418 227 562 516 22
44 172 414 333 823 l293 742 39 0 c21 0 38 -2 38 -5 0 -3 76 -447 170 -986
126 -729 178 -1004 200 -1072 46 -137 102 -229 200 -328 71 -71 101 -93 180
-132 149 -74 225 -90 415 -90 133 0 174 3 240 21 261 71 432 238 502 492 22
80 24 349 5 510 -23 182 -572 3461 -594 3545 -78 295 -253 513 -509 634 -313
149 -731 147 -1019 -5 -202 -107 -384 -309 -510 -568 -28 -56 -205 -504 -394
-996 l-345 -895 -38 0 -38 0 -342 888 c-188 488 -367 938 -398 999 -77 154
-155 268 -255 372 -154 160 -305 246 -515 292 -84 19 -323 26 -419 13z"/>
<path d="M14800 11769 c-112 -12 -273 -52 -368 -89 -258 -104 -467 -313 -612
-615 -54 -112 -1230 -3183 -1321 -3450 -108 -318 -123 -470 -61 -649 40 -115
83 -185 167 -271 157 -160 397 -247 639 -232 119 8 191 27 301 81 187 92 339
257 466 506 24 46 89 195 145 330 l102 245 767 0 767 0 102 -246 c56 -135 121
-283 145 -330 127 -248 279 -413 466 -505 110 -54 182 -73 301 -81 242 -15
482 72 639 232 84 86 127 156 167 270 56 162 49 300 -28 553 -48 157 -1292
3420 -1354 3550 -70 146 -150 264 -249 365 -171 176 -365 274 -636 322 -109
20 -425 28 -545 14z m457 -2269 c106 -289 195 -533 199 -542 5 -17 -20 -18
-430 -18 -240 0 -436 1 -436 3 0 5 378 1038 390 1065 8 19 16 23 47 20 l37 -3
193 -525z"/>
<path d="M19755 11769 c-490 -40 -897 -168 -1215 -380 -114 -77 -290 -244
-376 -359 -125 -166 -230 -412 -270 -635 -28 -151 -25 -445 4 -582 120 -555
525 -919 1307 -1177 174 -57 350 -105 716 -195 534 -131 662 -197 646 -332
-10 -86 -70 -166 -167 -226 -104 -64 -304 -103 -528 -103 -292 0 -405 43 -712
270 -149 110 -248 166 -355 200 -96 31 -339 39 -472 16 -374 -65 -567 -277
-568 -626 0 -93 5 -129 23 -190 128 -407 576 -768 1165 -939 431 -126 951
-154 1472 -80 802 114 1390 473 1659 1014 188 378 216 821 72 1176 -129 319
-414 584 -834 774 -251 113 -455 180 -982 320 -179 48 -372 102 -429 121 -191
63 -309 133 -347 205 -34 68 -5 168 68 234 92 84 232 119 446 113 130 -4 156
-8 222 -33 100 -37 182 -87 315 -191 212 -166 324 -227 469 -259 110 -24 375
-17 491 14 254 67 418 221 470 442 22 95 20 258 -6 349 -43 156 -147 320 -299
471 -302 301 -751 502 -1285 574 -143 19 -541 28 -700 14z"/>
<path d="M30740 11768 c-518 -43 -998 -220 -1362 -500 -447 -345 -731 -868
-787 -1452 -14 -145 -14 -1317 0 -1462 39 -403 189 -788 427 -1094 431 -553
1161 -870 2007 -870 1202 0 2118 626 2374 1623 65 251 66 268 66 1072 0 660
-2 741 -18 845 -144 897 -754 1535 -1687 1764 -305 75 -683 103 -1020 74z
m438 -1244 c286 -59 513 -282 606 -594 41 -137 46 -221 46 -842 0 -366 -4
-627 -11 -675 -30 -224 -109 -400 -243 -541 -151 -158 -341 -242 -551 -242
-211 0 -400 83 -552 244 -87 91 -147 191 -190 317 -59 171 -63 227 -63 894 0
667 4 723 63 894 97 282 317 488 583 544 92 20 218 21 312 1z"/>
<path d="M35865 11769 c-490 -40 -897 -168 -1215 -380 -114 -77 -290 -244
-376 -359 -125 -166 -230 -412 -270 -635 -28 -151 -25 -445 4 -582 120 -555
525 -919 1307 -1177 174 -57 350 -105 716 -195 534 -131 662 -197 646 -332
-10 -86 -70 -166 -167 -226 -104 -64 -304 -103 -528 -103 -292 0 -405 43 -712
270 -149 110 -248 166 -355 200 -96 31 -339 39 -472 16 -374 -65 -567 -277
-568 -626 0 -93 5 -129 23 -190 128 -407 576 -768 1165 -939 431 -126 951
-154 1472 -80 802 114 1390 473 1659 1014 188 378 216 821 72 1176 -129 319
-414 584 -834 774 -251 113 -455 180 -982 320 -179 48 -372 102 -429 121 -191
63 -309 133 -347 205 -34 68 -5 168 68 234 92 84 232 119 446 113 130 -4 156
-8 222 -33 100 -37 182 -87 315 -191 212 -166 324 -227 469 -259 110 -24 375
-17 491 14 254 67 418 221 470 442 22 95 20 258 -6 349 -43 156 -147 320 -299
471 -302 301 -751 502 -1285 574 -143 19 -541 28 -700 14z"/>
<path d="M23466 11699 c-106 -16 -179 -38 -275 -85 -73 -36 -110 -62 -166
-118 -81 -80 -121 -145 -162 -261 l-28 -80 0 -2070 0 -2070 28 -80 c41 -116
81 -181 162 -261 152 -151 387 -225 665 -211 144 8 260 36 370 89 115 55 239
177 293 288 78 161 72 -29 72 2245 0 1942 -1 2033 -18 2100 -45 168 -160 325
-299 408 -160 95 -422 138 -642 106z"/>
<path d="M26842 11698 c-93 -13 -238 -62 -310 -105 -91 -54 -202 -173 -246
-265 -74 -155 -69 -56 -76 -1498 -7 -1420 -3 -1335 -67 -1501 -72 -185 -217
-328 -435 -428 -46 -21 -175 -71 -288 -110 -113 -40 -256 -97 -318 -127 -94
-46 -126 -67 -187 -128 -54 -52 -83 -91 -105 -139 -85 -180 -74 -440 26 -638
44 -88 159 -208 244 -257 129 -73 304 -112 498 -112 432 1 885 128 1232 348
175 111 419 337 543 504 218 292 357 630 429 1043 l23 130 0 1370 0 1370 -28
80 c-41 116 -81 181 -162 261 -143 142 -356 215 -615 213 -52 -1 -123 -6 -158
-11z"/>
<path d="M16420 5800 c-268 -37 -457 -125 -609 -286 -86 -90 -144 -176 -211
-316 -27 -57 -278 -701 -556 -1433 -555 -1459 -584 -1537 -616 -1663 l-22 -87
-7 61 c-26 222 -150 386 -354 471 -124 52 -145 53 -999 53 l-795 0 -4 1328
c-3 1244 -4 1331 -21 1387 -62 208 -208 348 -423 407 -116 32 -356 32 -468 0
-178 -51 -312 -155 -378 -293 -71 -147 -67 -47 -67 -1869 0 -1822 -4 -1722 67
-1869 69 -144 218 -255 400 -298 73 -17 152 -18 1298 -18 1156 0 1224 1 1290
19 230 60 386 209 439 416 13 52 14 53 21 25 48 -215 160 -363 340 -450 95
-46 171 -64 290 -71 307 -18 559 155 732 501 22 44 77 169 123 277 l83 198
647 0 647 0 83 -197 c129 -309 183 -408 292 -535 98 -114 247 -204 388 -234
88 -19 241 -14 335 12 329 87 524 386 461 704 -9 47 -41 155 -70 240 -60 176
-1046 2765 -1099 2889 -63 146 -133 248 -241 356 -145 144 -270 210 -482 255
-113 24 -403 35 -514 20z m400 -1935 l168 -460 -184 -3 c-101 -1 -267 -1 -368
0 l-184 3 164 450 c91 248 167 456 169 463 3 8 17 12 36 10 l31 -3 168 -460z"/>
<path d="M22590 5800 c-268 -37 -457 -125 -609 -286 -86 -90 -144 -176 -211
-316 -51 -107 -1064 -2755 -1131 -2958 -20 -63 -45 -153 -55 -199 -64 -319
132 -618 461 -705 94 -26 247 -31 335 -12 141 30 290 120 388 234 109 127 163
226 292 534 l83 198 647 0 647 0 83 -197 c129 -309 183 -408 292 -535 98 -114
247 -204 388 -234 88 -19 241 -14 335 12 329 87 524 386 461 704 -9 47 -41
155 -70 240 -60 176 -1046 2765 -1099 2889 -63 146 -133 248 -241 356 -145
144 -270 210 -482 255 -113 24 -403 35 -514 20z m400 -1935 l168 -460 -184 -3
c-101 -1 -267 -1 -368 0 l-184 3 164 450 c91 248 167 456 169 463 3 8 17 12
36 10 l31 -3 168 -460z"/>
<path d="M30415 5741 c-219 -35 -391 -150 -468 -312 -69 -144 -67 -103 -67
-1358 0 -714 4 -1167 10 -1232 15 -146 45 -285 90 -420 210 -631 738 -1033
1505 -1146 182 -27 581 -24 770 5 802 125 1344 583 1514 1281 56 230 56 217
56 1501 0 1119 -1 1189 -18 1250 -60 210 -206 352 -424 412 -116 32 -356 32
-468 0 -178 -51 -312 -155 -378 -293 -69 -144 -67 -103 -67 -1349 0 -774 -3
-1143 -11 -1193 -16 -100 -53 -200 -106 -279 -102 -155 -251 -234 -463 -245
-312 -16 -541 146 -627 442 -16 55 -18 160 -23 1255 -6 1108 -7 1199 -24 1255
-62 209 -209 350 -423 406 -86 23 -293 34 -378 20z"/>
<path d="M935 5680 c-216 -33 -391 -149 -468 -311 -71 -147 -67 -50 -67 -1839
0 -1789 -4 -1692 67 -1839 66 -138 199 -241 378 -293 l80 -23 745 0 c812 0
842 2 1110 61 822 183 1366 730 1487 1496 16 97 18 180 18 598 0 418 -2 501
-18 598 -121 766 -665 1313 -1487 1496 -261 58 -285 59 -1070 62 -399 1 -748
-1 -775 -6z m1430 -1124 c143 -40 291 -133 370 -233 56 -71 119 -196 142 -283
16 -57 18 -117 18 -510 0 -494 -1 -502 -69 -645 -89 -187 -240 -315 -446 -376
-67 -20 -103 -23 -347 -26 l-273 -5 0 1052 0 1052 273 -5 c214 -3 285 -7 332
-21z"/>
<path d="M25960 5679 c-225 -29 -403 -147 -485 -321 -68 -146 -65 -54 -65
-1833 0 -1783 -4 -1687 67 -1834 69 -144 218 -255 400 -298 73 -17 142 -18
998 -18 828 0 935 2 1065 18 516 65 871 214 1116 469 97 102 132 151 189 270
91 190 128 404 106 604 -26 231 -108 403 -270 565 -139 138 -316 242 -534 314
-112 37 -117 40 -117 66 0 23 6 29 38 39 78 26 250 122 327 183 140 113 246
270 290 432 24 92 30 272 11 385 -50 306 -207 533 -481 695 -258 152 -588 237
-1035 265 -194 12 -1525 11 -1620 -1z m1493 -1054 c158 -41 237 -129 237 -265
0 -107 -49 -184 -149 -234 -80 -41 -135 -46 -461 -46 l-310 0 0 280 0 280 313
0 c245 0 325 -3 370 -15z m189 -1546 c122 -26 228 -102 271 -197 32 -69 31
-189 -2 -256 -46 -94 -134 -159 -258 -191 -46 -12 -136 -15 -470 -15 l-413 0
0 335 0 335 410 0 c262 0 428 -4 462 -11z"/>
<path d="M5416 5664 c-238 -52 -387 -182 -462 -404 -18 -53 -19 -126 -22
-1695 -3 -1825 -6 -1725 65 -1874 69 -144 218 -255 400 -298 74 -17 156 -18
1423 -18 l1345 0 80 23 c123 36 202 79 276 152 112 109 169 258 169 434 -1
182 -48 311 -157 427 -51 54 -84 79 -147 109 -162 79 -88 74 -1148 78 l-948 3
0 184 0 185 620 0 c701 0 714 1 860 72 64 31 101 58 150 107 259 263 183 698
-150 859 -146 71 -159 72 -860 72 l-620 0 0 185 0 184 913 3 912 4 73 22 c289
88 442 292 442 587 0 291 -155 502 -430 587 l-75 23 -1320 2 c-1140 1 -1329 0
-1389 -13z"/>
<path d="M35116 5664 c-238 -52 -387 -182 -462 -404 -18 -53 -19 -126 -22
-1695 -3 -1825 -6 -1725 65 -1874 69 -144 218 -255 400 -298 74 -17 156 -18
1423 -18 l1345 0 80 23 c123 36 202 79 276 152 112 109 169 258 169 434 -1
182 -48 311 -157 427 -51 54 -84 79 -147 109 -162 79 -88 74 -1148 78 l-948 3
0 184 0 185 620 0 c701 0 714 1 860 72 64 31 101 58 150 107 259 263 183 698
-150 859 -146 71 -159 72 -860 72 l-620 0 0 185 0 184 913 3 912 4 73 22 c289
88 442 292 442 587 0 291 -155 502 -430 587 l-75 23 -1320 2 c-1140 1 -1329 0
-1389 -13z"/>
</g>
</svg>
