<?xml version="1.0" standalone="no"?>
<!DOCTYPE svg PUBLIC "-//W3C//DTD SVG 20010904//EN"
 "http://www.w3.org/TR/2001/REC-SVG-20010904/DTD/svg10.dtd">
<svg version="1.0" xmlns="http://www.w3.org/2000/svg"
 width="6243.000000pt" height="4680.000000pt" viewBox="0 0 6243.000000 4680.000000"
 preserveAspectRatio="xMidYMid meet">

<g transform="translate(0.000000,4680.000000) scale(0.100000,-0.100000)"
fill="#000000" stroke="none">
<path d="M5600 46689 c374 -467 535 -909 617 -1694 16 -148 17 -869 20 -9952
l3 -9793 1393 0 1393 0 -3 33 c-12 124 -1253 17126 -1251 17139 2 9 2424
-3851 5383 -8577 l5380 -8594 2833 -1 c2264 0 2832 3 2826 13 -5 6 -31 39 -59
72 -27 33 -78 98 -111 145 -337 470 -491 992 -534 1810 -6 130 -10 3435 -10
9853 l0 9657 -1390 0 -1390 0 0 -35 c0 -19 259 -3872 575 -8562 317 -4690 574
-8543 573 -8562 -3 -30 -643 989 -5384 8560 l-5381 8594 -2786 3 -2786 2 89
-111z"/>
<path d="M27500 46794 c0 -3 12 -16 27 -28 156 -121 316 -293 428 -461 150
-223 228 -451 276 -800 10 -71 14 -1984 20 -9015 3 -4909 9 -8943 12 -8965 4
-22 11 -105 17 -185 22 -292 75 -595 145 -832 225 -759 688 -1166 1420 -1248
57 -6 835 -10 2148 -10 l2058 0 -63 52 c-151 124 -322 315 -421 471 -130 203
-217 471 -247 757 -6 58 -13 121 -17 140 -3 19 -9 4058 -12 8975 -6 8423 -8
8949 -24 9100 -51 465 -121 772 -243 1062 -208 499 -572 815 -1071 932 -249
58 -114 55 -2375 58 -1143 2 -2078 1 -2078 -3z"/>
<path d="M37180 46795 c0 -2 28 -23 61 -46 143 -97 302 -280 412 -475 237
-419 373 -998 407 -1729 6 -145 10 -3456 10 -9757 l0 -9538 1390 0 c947 0
1390 3 1390 10 0 15 -1248 18525 -1253 18583 -2 27 0 44 4 40 5 -5 1682 -3490
3727 -7744 l3719 -7734 833 0 833 0 3126 6864 3126 6864 6 -7264 c4 -5523 8
-7298 17 -7404 64 -747 186 -1190 428 -1552 74 -110 248 -291 352 -366 211
-152 490 -252 794 -286 66 -8 749 -11 2153 -11 l2055 0 -108 93 c-255 222
-438 485 -532 766 -67 198 -96 397 -110 741 -6 144 -10 4046 -10 10093 l0
9857 -2302 -2 -2303 -3 -2914 -6392 c-1603 -3516 -2917 -6393 -2920 -6393 -4
0 -1399 2877 -3103 6393 l-3096 6392 -3096 3 c-1703 1 -3096 0 -3096 -3z"/>
<path d="M4150 23473 c-426 -29 -824 -95 -1184 -193 -729 -200 -1405 -620
-1929 -1197 -354 -390 -597 -796 -784 -1312 -102 -282 -196 -696 -234 -1030
-15 -139 -6 -552 15 -686 87 -536 317 -1057 655 -1485 110 -138 377 -403 521
-514 588 -457 1220 -668 1920 -642 1009 37 1770 422 2329 1179 388 525 592
1214 568 1912 -13 363 -86 645 -257 990 -224 454 -569 869 -975 1171 -242 181
-285 216 -361 297 -345 367 -196 717 386 906 232 75 382 96 700 95 212 0 279
-4 395 -22 348 -55 626 -157 900 -330 422 -268 634 -643 675 -1192 6 -87 10
-1849 10 -4996 l0 -4860 144 73 c607 307 1396 563 2183 707 946 174 1990 190
2858 45 125 -20 367 -67 398 -75 16 -5 17 38 17 804 l0 810 118 8 c182 13 530
8 700 -10 503 -54 959 -200 1378 -442 781 -451 1498 -1272 1964 -2249 437
-913 739 -2081 834 -3215 37 -438 48 -1053 26 -1470 -53 -1005 -249 -1970
-577 -2840 -260 -689 -619 -1305 -1063 -1825 -140 -164 -447 -467 -608 -600
-707 -585 -1489 -885 -2467 -946 -858 -54 -1619 128 -2236 532 -659 432 -1148
1030 -1467 1794 -268 641 -364 1334 -276 2010 86 667 342 1215 773 1658 523
537 1151 842 1916 929 161 18 571 15 726 -5 457 -60 816 -201 1145 -448 345
-259 544 -568 626 -971 20 -100 23 -142 23 -366 0 -195 3 -251 12 -248 7 3 53
32 102 65 315 212 615 519 816 836 31 50 97 171 145 270 170 346 261 658 306
1045 20 180 15 631 -10 805 -62 433 -178 800 -383 1209 -332 662 -801 1172
-1476 1604 -687 438 -1483 679 -2427 732 -1154 65 -2274 -181 -3380 -741 -783
-396 -1444 -928 -2001 -1609 -648 -793 -1005 -1639 -1116 -2650 -28 -253 -25
-770 5 -1070 109 -1077 418 -2011 918 -2778 359 -550 851 -1043 1404 -1407
474 -312 1143 -635 1835 -885 1569 -567 3381 -769 5195 -580 1034 108 2090
346 3176 714 1201 408 2222 983 3133 1765 388 332 833 788 1110 1136 730 915
1173 2024 1315 3295 73 648 69 1395 -10 1925 -124 844 -434 1604 -922 2265
-411 556 -972 1097 -1562 1506 -1070 742 -2557 1285 -4120 1504 -166 23 -452
56 -585 66 -107 9 -111 8 180 64 1104 215 2172 603 3140 1143 581 324 920 570
1251 908 531 543 817 1160 885 1908 15 174 7 637 -16 821 -43 351 -117 653
-232 945 -324 821 -944 1455 -1878 1923 -1122 561 -2531 910 -4135 1026 -444
33 -614 37 -1750 46 -1705 13 -2645 34 -3850 85 -1276 54 -2550 144 -3560 250
-816 85 -1667 132 -2000 108z m10480 -798 c473 -74 838 -251 1158 -560 139
-134 217 -227 332 -395 381 -561 597 -1254 651 -2090 15 -230 6 -744 -16 -960
-104 -1025 -435 -2005 -928 -2745 -559 -839 -1290 -1393 -2112 -1599 -193 -48
-476 -95 -572 -96 l-43 0 0 3833 c0 4210 -4 3928 60 4120 107 318 314 460 740
506 134 15 606 6 730 -14z"/>
<path d="M53065 22303 c-1228 -45 -2453 -283 -3467 -673 -386 -149 -862 -376
-1183 -564 -1101 -647 -1928 -1519 -2396 -2529 -248 -535 -397 -1101 -450
-1712 -15 -179 -16 -659 0 -840 71 -833 303 -1561 719 -2248 650 -1075 1724
-2026 3392 -3004 650 -382 1039 -588 2720 -1448 1435 -734 2174 -1155 2835
-1615 1302 -906 2004 -1835 2174 -2875 29 -178 31 -195 40 -380 28 -520 -60
-1113 -235 -1589 -112 -301 -327 -673 -527 -911 -552 -655 -1338 -1025 -2350
-1106 -219 -17 -654 -7 -832 20 -1366 207 -2534 1252 -3537 3166 -496 946
-948 2120 -1345 3495 -47 162 -86 296 -88 298 -1 1 -74 -28 -161 -66 -934
-407 -1660 -859 -2221 -1383 -597 -558 -946 -1152 -1060 -1804 -27 -155 -24
-569 5 -725 108 -582 397 -1092 893 -1575 1123 -1095 3105 -1820 5609 -2054
898 -84 2023 -104 2910 -51 1696 101 3114 416 4308 957 1244 562 2212 1383
2819 2388 408 677 659 1431 752 2260 92 812 22 1580 -204 2251 -400 1187
-1283 2173 -2760 3079 -708 435 -1413 790 -3100 1560 -1748 798 -2425 1149
-3165 1640 -776 514 -1318 1021 -1702 1592 -365 544 -569 1102 -643 1763 -34
301 -30 769 11 1130 101 910 416 1651 915 2149 471 471 1082 712 1809 713 219
1 345 -14 530 -63 1013 -267 1939 -1365 2745 -3254 335 -785 717 -1920 965
-2866 12 -48 26 -92 30 -99 16 -26 574 75 940 169 1356 347 2350 1020 2770
1876 108 220 164 389 205 615 23 125 31 444 15 582 -107 933 -820 1818 -1990
2470 -1495 833 -3663 1278 -6180 1266 -239 -1 -471 -3 -515 -5z"/>
<path d="M24242 21891 c222 -192 360 -368 473 -603 83 -174 131 -359 166 -638
10 -72 14 -1549 20 -6175 4 -3344 10 -6109 13 -6145 4 -36 13 -180 22 -320
169 -2798 1035 -4836 2599 -6117 675 -553 1481 -974 2430 -1269 1114 -347
2468 -524 4020 -524 2858 0 4962 592 6421 1807 1424 1186 2253 2993 2508 5469
23 219 35 370 68 849 16 237 24 11149 8 11440 -20 376 -60 666 -125 925 -216
857 -690 1298 -1484 1379 -69 8 -775 11 -2140 11 l-2036 0 55 -47 c236 -202
405 -410 510 -628 87 -181 132 -348 168 -617 16 -125 17 -483 17 -6268 0
-6374 1 -6262 -40 -6970 -86 -1471 -286 -2675 -606 -3632 -220 -662 -502
-1206 -853 -1648 -121 -152 -364 -398 -505 -509 -609 -482 -1342 -700 -2218
-660 -700 32 -1269 233 -1783 629 -122 94 -412 385 -519 520 -617 780 -1032
1920 -1265 3480 -98 658 -163 1363 -196 2130 -5 135 -13 277 -16 315 -3 39 -9
2671 -13 5850 -6 4367 -10 5811 -20 5905 -58 606 -145 963 -318 1300 -259 506
-683 782 -1289 840 -71 6 -825 10 -2142 10 l-2032 0 102 -89z"/>
</g>
</svg>
