<?xml version="1.0" encoding="UTF-8"?>
<svg id="Capa_9" data-name="Capa 9" xmlns="http://www.w3.org/2000/svg" viewBox="0 0 2300.73 2565.3">
  <defs>
    <style>
      .cls-1 {
        letter-spacing: -.06em;
      }

      .cls-2 {
        font-family: DreamOrphans-Italic, 'Dream Orphans';
        font-size: 202.4px;
        font-style: italic;
      }

      .cls-2, .cls-3, .cls-4 {
        fill: #2b2b2b;
      }

      .cls-3 {
        font-family: FONTSPRINGDEMO-CeraProRegular, 'FONTSPRING DEMO - Cera Pro';
        font-size: 226.72px;
      }

      .cls-5 {
        letter-spacing: -.06em;
      }

      .cls-6 {
        letter-spacing: -.01em;
      }

      .cls-7 {
        letter-spacing: 0em;
      }

      .cls-8 {
        letter-spacing: -.02em;
      }
    </style>
  </defs>
  <path class="cls-4" d="m862.92,1934.29c3.78,20.79,7.87,45.36,16.38,56.38,3.47,4.41,7.49,6.12,11.59,6.12,7.09,0,11.71-2.67,17.02-8.51,7.09-7.8,12.81-24.56,12.81-24.56,0,0-5.72,19.59-17.78,31.65-6.38,6.38-14.17,7.86-19.85,7.8-9.13-.1-15.76-4.31-20.48-9.98-10.08-11.97-13.23-37.48-17.32-58.27l-7.16-38.56c-.6-3.21-3.39-5.53-6.65-5.53h0c-12.3,0-21.97,6.47-29.14,16.96-1.5,2.19-2.74,4.54-3.8,6.96-3.55,8.11-12.97,31.85-24.35,57.32-3.12,6.99-7.4,13.85-12.97,19.37-13.39,13.24-30.54,18.57-51.13,16.7-15.6-1.42-39.71-14.18-34.04-42.54,6.55-32.77,47.51-36.92,47.51-36.92,0,0-26.09,2.09-39,22.74-14.18,22.69,8.09,40.84,21.98,43.25,16.31,2.84,32.62-5.67,44.36-19.04,4.91-5.58,12.24-21.88,12.24-21.88l65.78-154.27c6.23-14.52-2.92-20.14-11.26-20.42-25.57-.87-94.31,50.87-83.46,109.24,2.15,11.6,10.81,28.13,31.2,36.87,13.32,5.71,48.48,1.18,65.23-2.13,104.23-20.56,92.18,32.62,92.18,32.62,0,0,9.93-50.34-80.13-29.78-73.08,16.69-91.06,3.34-98.56,0-57.6-25.6-28.59-124.81,43.96-146.78,25.76-7.8,86.5-2.62,86.5-2.62,47.56,0,68.98,18.58,61.73,52.92-8.19,39.69-44.1,58.59-81.58,61.1l8.19,43.78Zm-52.92-45.99h38.43c34.33,0,63.62-26.46,69.61-62.99,5.04-30.55-9.76-46.3-43.15-46.3h0c-11.08,0-21.09,6.61-25.44,16.8"/>
  <text class="cls-3" transform="translate(48.73 1979.74)"><tspan class="cls-1" x="0" y="0">S</tspan><tspan class="cls-5" x="111.78" y="0">tudio</tspan></text>
  <text class="cls-2" transform="translate(926.1 1979.64)"><tspan class="cls-6" x="0" y="0">o</tspan><tspan class="cls-8" x="103.02" y="0">s</tspan><tspan class="cls-7" x="184.18" y="0">s</tspan><tspan x="266.96" y="0">o</tspan></text>
</svg>