<?xml version="1.0" standalone="no"?>
<!DOCTYPE svg PUBLIC "-//W3C//DTD SVG 20010904//EN"
 "http://www.w3.org/TR/2001/REC-SVG-20010904/DTD/svg10.dtd">
<svg version="1.0" xmlns="http://www.w3.org/2000/svg"
 width="5319.000000pt" height="1052.000000pt" viewBox="0 0 5319.000000 1052.000000"
 preserveAspectRatio="xMidYMid meet">

<g transform="translate(0.000000,1052.000000) scale(0.100000,-0.100000)"
fill="#000000" stroke="none">
<path d="M32177 10509 c-555 -19 -1025 -77 -1325 -164 -1334 -383 -2474 -1502
-2932 -2875 -414 -1239 -171 -2383 635 -2990 137 -103 259 -174 497 -286 360
-171 603 -243 973 -284 61 -7 111 -14 113 -15 1 -1 -85 -206 -191 -456 -256
-598 -449 -983 -606 -1204 -72 -103 -307 -337 -442 -442 -308 -239 -647 -392
-984 -444 -104 -16 -338 -15 -440 1 -285 44 -553 187 -786 419 -224 223 -328
422 -360 692 -57 489 336 1063 944 1379 62 31 138 68 169 81 32 12 56 24 54
26 -6 7 -202 -75 -309 -128 -645 -322 -996 -806 -1058 -1457 -48 -514 175
-974 614 -1266 237 -158 515 -262 800 -298 154 -19 591 -16 747 5 550 77 1004
293 1385 659 182 175 328 368 462 613 86 155 383 832 717 1630 l75 180 83 7
c365 32 457 42 633 64 374 48 1021 164 1384 250 57 13 105 23 107 22 2 -3 67
-343 199 -1053 142 -762 256 -1163 422 -1487 248 -486 680 -736 1172 -679 439
51 736 277 1049 797 97 162 265 508 297 614 14 47 -3 15 -45 -85 -70 -165
-204 -423 -280 -538 -81 -122 -236 -290 -340 -367 -77 -57 -189 -112 -275
-136 -93 -25 -276 -30 -354 -10 -111 28 -188 73 -277 161 -96 94 -154 181
-234 348 -179 375 -291 806 -489 1882 -50 270 -99 534 -109 588 -13 69 -16
100 -8 103 6 2 92 13 191 24 627 69 1116 42 1501 -85 483 -159 757 -436 869
-880 l15 -60 -6 50 c-9 73 -57 218 -104 309 -106 207 -262 365 -490 501 -395
233 -1001 339 -1744 306 -148 -6 -270 -10 -271 -9 -4 5 -215 1142 -215 1159 0
13 17 17 93 23 422 32 942 150 1326 302 1021 404 1685 1117 1936 2079 139 530
123 988 -44 1341 -86 179 -204 335 -347 455 -414 348 -1007 524 -1879 559
-143 6 -368 17 -500 25 -812 50 -1437 64 -2018 44z m68 -199 c105 -33 163 -66
231 -132 44 -42 70 -79 95 -131 29 -64 33 -83 37 -177 3 -88 -1 -121 -21 -201
-18 -70 -337 -827 -1167 -2775 -628 -1474 -1148 -2691 -1156 -2705 l-13 -26
-78 12 c-164 27 -261 59 -418 137 -361 180 -653 433 -870 753 -84 123 -193
344 -240 485 -118 354 -143 810 -70 1246 143 850 625 1678 1414 2427 602 573
1329 1002 1866 1102 113 21 298 14 390 -15z m2655 5 c464 -64 799 -211 1028
-449 97 -101 150 -179 213 -310 52 -110 90 -231 117 -371 26 -141 23 -514 -6
-705 -101 -648 -352 -1208 -752 -1675 -97 -112 -288 -298 -400 -388 -306 -246
-704 -446 -1075 -540 -333 -84 -400 -88 -1421 -85 l-860 3 635 1490 c350 820
728 1705 839 1967 229 537 265 602 411 749 169 169 382 281 616 324 103 19
489 13 655 -10z m-2141 -4666 c65 -33 121 -94 140 -152 13 -41 202 -1059 197
-1064 -2 -2 -79 -17 -172 -33 -93 -16 -254 -45 -359 -65 -457 -87 -1009 -158
-1414 -181 -96 -6 -113 -5 -109 7 68 168 222 530 261 609 28 58 80 148 115
200 307 453 724 705 1173 709 99 1 110 -1 168 -30z"/>
<path d="M16880 7484 l0 -1587 -22 29 c-207 273 -554 508 -934 633 -676 223
-1410 133 -1984 -243 -773 -507 -1167 -1490 -999 -2494 114 -685 496 -1268
1055 -1614 247 -153 534 -256 844 -305 161 -25 518 -24 685 1 402 61 752 208
1050 441 92 72 231 213 296 299 l44 59 3 -361 2 -362 345 0 345 0 0 3545 0
3545 -365 0 -365 0 0 -1586z m-1415 -1484 c275 -31 522 -118 735 -261 114 -77
271 -225 355 -338 73 -96 169 -276 214 -399 151 -408 159 -970 21 -1392 -173
-530 -586 -901 -1131 -1018 -771 -166 -1500 181 -1829 871 -285 595 -226 1361
143 1884 80 114 258 291 372 372 313 220 728 325 1120 281z"/>
<path d="M18913 8860 c-137 -25 -272 -108 -348 -215 -153 -214 -131 -492 52
-674 80 -78 143 -114 249 -141 228 -59 464 25 588 208 234 344 7 801 -410 826
-44 3 -102 1 -131 -4z"/>
<path d="M2495 8304 c-326 -34 -565 -102 -815 -230 -476 -245 -778 -648 -856
-1141 -20 -133 -15 -446 11 -558 91 -403 328 -723 745 -1004 225 -152 384
-236 1013 -532 756 -357 919 -450 1098 -628 149 -148 212 -266 245 -452 20
-117 14 -287 -16 -409 -28 -117 -114 -287 -190 -377 -164 -195 -427 -334 -735
-389 -123 -22 -448 -25 -570 -6 -574 93 -992 387 -1451 1018 l-20 28 -270
-199 c-148 -109 -271 -200 -273 -202 -6 -4 63 -115 140 -223 381 -539 941
-917 1561 -1054 219 -49 317 -59 578 -60 326 -1 545 30 800 114 636 208 1056
653 1191 1260 33 148 38 474 11 635 -70 408 -271 715 -661 1008 -230 173 -481
310 -1156 632 -661 315 -858 424 -1008 553 -132 113 -224 253 -269 408 -20 68
-23 101 -22 234 1 138 3 164 27 243 33 108 71 183 131 264 195 259 573 407
1001 390 516 -21 978 -268 1307 -699 37 -50 64 -76 71 -71 16 9 499 373 515
388 10 9 2 26 -39 86 -357 511 -922 858 -1559 954 -101 15 -451 28 -535 19z"/>
<path d="M5687 7833 c-4 -3 -7 -287 -7 -630 l0 -623 -385 0 -385 0 0 -325 0
-325 385 0 385 0 0 -1312 c0 -783 4 -1359 10 -1428 27 -307 102 -541 242 -747
258 -384 746 -581 1383 -560 203 7 325 23 538 68 l147 32 0 309 0 310 -27 -6
c-75 -16 -256 -37 -415 -48 -433 -29 -749 46 -926 220 -98 97 -155 205 -199
382 -15 58 -17 205 -20 1423 l-4 1357 721 0 720 0 0 325 0 325 -720 0 -720 0
0 630 0 630 -358 0 c-197 0 -362 -3 -365 -7z"/>
<path d="M39313 7450 c-854 -83 -1505 -566 -1938 -1437 -245 -495 -403 -1093
-472 -1793 -21 -217 -24 -785 -5 -960 90 -823 392 -1239 997 -1369 318 -69
764 -47 1105 55 902 268 1547 1036 1830 2179 68 275 114 561 142 890 17 198
17 831 0 995 -55 538 -173 865 -399 1100 -162 170 -368 271 -653 321 -133 23
-457 33 -607 19z m137 -315 c295 -79 489 -392 580 -939 87 -527 85 -1383 -6
-2014 -146 -1018 -520 -1714 -1058 -1968 -174 -82 -381 -113 -536 -80 -293 62
-469 296 -560 745 -88 435 -93 1325 -10 1997 113 922 377 1599 771 1979 172
166 354 265 544 294 75 12 203 6 275 -14z"/>
<path d="M43065 7448 c-472 -53 -952 -315 -1248 -681 -252 -311 -387 -651
-404 -1017 -16 -348 74 -618 290 -870 120 -141 234 -229 662 -512 323 -214
464 -317 602 -443 167 -153 282 -331 318 -495 21 -96 21 -271 0 -375 -91 -440
-473 -792 -947 -871 -229 -38 -483 12 -664 132 -192 127 -346 338 -430 589
-20 61 -37 111 -39 113 -3 3 -315 -175 -328 -187 -12 -12 40 -177 87 -277 216
-457 659 -703 1266 -704 678 -1 1270 299 1637 832 295 427 399 982 263 1391
-94 280 -291 484 -725 754 -88 54 -230 142 -315 195 -360 223 -630 449 -744
622 -92 140 -132 300 -123 496 13 277 101 489 277 668 215 218 525 335 850
319 142 -7 248 -33 365 -91 166 -82 283 -200 376 -379 35 -69 54 -96 62 -89
215 164 267 206 267 216 0 44 -100 213 -182 309 -112 128 -333 259 -530 312
-188 50 -434 67 -643 43z"/>
<path d="M46445 7448 c-472 -53 -952 -315 -1248 -681 -252 -311 -387 -651
-404 -1017 -16 -348 74 -618 290 -870 120 -141 234 -229 662 -512 323 -214
464 -317 602 -443 167 -153 282 -331 318 -495 21 -96 21 -271 0 -375 -91 -440
-473 -792 -947 -871 -229 -38 -483 12 -664 132 -192 127 -346 338 -430 589
-20 61 -37 111 -39 113 -3 3 -315 -175 -328 -187 -12 -12 40 -177 87 -277 216
-457 659 -703 1266 -704 678 -1 1270 299 1637 832 295 427 399 982 263 1391
-94 280 -291 484 -725 754 -88 54 -230 142 -315 195 -360 223 -630 449 -744
622 -92 140 -132 300 -123 496 13 277 101 489 277 668 215 218 525 335 850
319 142 -7 248 -33 365 -91 166 -82 283 -200 376 -379 35 -69 54 -96 62 -89
215 164 267 206 267 216 0 44 -100 213 -182 309 -112 128 -333 259 -530 312
-188 50 -434 67 -643 43z"/>
<path d="M50433 7450 c-854 -83 -1505 -566 -1938 -1437 -245 -495 -403 -1093
-472 -1793 -21 -217 -24 -785 -5 -960 90 -823 392 -1239 997 -1369 318 -69
764 -47 1105 55 902 268 1547 1036 1830 2179 68 275 114 561 142 890 17 198
17 831 0 995 -55 538 -173 865 -399 1100 -162 170 -368 271 -653 321 -133 23
-457 33 -607 19z m137 -315 c295 -79 489 -392 580 -939 87 -527 85 -1383 -6
-2014 -146 -1018 -520 -1714 -1058 -1968 -174 -82 -381 -113 -536 -80 -293 62
-469 296 -560 745 -88 435 -93 1325 -10 1997 113 922 377 1599 771 1979 172
166 354 265 544 294 75 12 203 6 275 -14z"/>
<path d="M22285 6674 c-255 -26 -437 -64 -640 -134 -479 -166 -903 -495 -1190
-925 -83 -124 -200 -358 -248 -496 -147 -414 -181 -853 -101 -1285 155 -845
749 -1532 1569 -1813 461 -159 1000 -172 1470 -36 607 176 1111 571 1425 1118
400 697 412 1600 30 2314 -140 261 -324 491 -544 680 -355 304 -766 489 -1241
559 -97 14 -449 26 -530 18z m521 -698 c343 -72 613 -221 856 -474 303 -316
468 -750 468 -1227 -1 -899 -616 -1605 -1485 -1705 -336 -38 -714 38 -1000
201 -134 76 -227 149 -350 273 -329 331 -501 796 -482 1301 19 494 194 899
529 1221 250 240 567 388 935 434 125 16 394 4 529 -24z"/>
<path d="M8463 5068 c3 -1479 4 -1515 24 -1623 86 -456 254 -783 547 -1062
434 -414 1092 -588 1744 -462 364 70 732 269 972 526 287 308 455 693 499
1147 7 72 11 607 11 1548 l0 1438 -365 0 -365 0 0 -1467 c0 -1587 1 -1556 -54
-1744 -88 -302 -290 -550 -561 -688 -398 -204 -927 -162 -1277 100 -241 180
-395 447 -443 769 -13 79 -15 335 -15 1563 l0 1467 -360 0 -361 0 4 -1512z"/>
<path d="M18640 4280 l0 -2300 365 0 365 0 0 2300 0 2300 -365 0 -365 0 0
-2300z"/>
<path d="M36442 3330 c0 -19 2 -27 5 -17 2 9 2 25 0 35 -3 9 -5 1 -5 -18z"/>
<path d="M36452 3230 c0 -19 2 -27 5 -17 2 9 2 25 0 35 -3 9 -5 1 -5 -18z"/>
<path d="M36286 2475 c-9 -26 -7 -32 5 -12 6 10 9 21 6 23 -2 3 -7 -2 -11 -11z"/>
</g>
</svg>
