<?xml version="1.0" standalone="no"?>
<!DOCTYPE svg PUBLIC "-//W3C//DTD SVG 20010904//EN"
 "http://www.w3.org/TR/2001/REC-SVG-20010904/DTD/svg10.dtd">
<svg version="1.0" xmlns="http://www.w3.org/2000/svg"
 width="3430.000000pt" height="3430.000000pt" viewBox="0 0 3430.000000 3430.000000"
 preserveAspectRatio="xMidYMid meet">

<g transform="translate(0.000000,3430.000000) scale(0.100000,-0.100000)"
fill="#000000" stroke="none">
<path d="M3865 34289 c-243 -16 -466 -52 -720 -114 -1371 -337 -2481 -1363
-2930 -2710 -94 -281 -155 -568 -192 -895 -17 -159 -18 -643 -18 -13425 0
-12639 1 -13267 18 -13413 68 -592 231 -1112 496 -1587 419 -751 1038 -1339
1806 -1717 419 -206 839 -330 1340 -395 135 -17 629 -18 13485 -18 12856 0
13350 1 13485 18 508 66 913 187 1350 402 697 343 1275 866 1687 1528 312 502
506 1047 590 1657 l23 165 0 13370 c0 12700 -1 13376 -18 13497 -113 821 -392
1478 -896 2113 -126 159 -453 485 -619 617 -685 546 -1471 850 -2342 908 -178
12 -26369 11 -26545 -1z m17600 -5189 c482 -14 841 -28 1470 -55 308 -14 769
-34 1025 -45 256 -11 564 -27 685 -35 1763 -121 3126 -475 4106 -1068 305
-184 539 -366 780 -606 282 -283 469 -540 638 -878 444 -887 493 -2006 146
-3348 -240 -928 -640 -1768 -1194 -2503 -565 -749 -1283 -1390 -2141 -1909
-1326 -802 -2975 -1303 -4758 -1444 -132 -10 -152 -14 -148 -28 3 -9 125 -659
272 -1446 146 -786 267 -1430 268 -1431 0 0 78 5 171 12 1105 80 2162 41 2992
-111 569 -105 1050 -254 1481 -461 193 -92 301 -153 477 -270 190 -125 334
-242 496 -404 234 -232 401 -464 539 -745 95 -194 150 -342 200 -540 64 -252
87 -423 94 -695 l5 -175 -14 199 c-23 331 -72 590 -158 841 -300 877 -988
1499 -2032 1838 -895 291 -2069 367 -3465 227 -266 -27 -681 -79 -701 -88 -14
-6 -6 -61 73 -477 48 -258 147 -792 219 -1185 149 -817 237 -1283 314 -1655
371 -1803 746 -2902 1215 -3565 218 -308 488 -525 783 -629 166 -58 270 -74
482 -74 513 0 910 141 1300 461 418 343 718 730 1054 1359 159 297 404 838
531 1171 24 62 45 110 47 108 10 -10 -176 -481 -302 -766 -499 -1125 -1159
-2052 -1771 -2487 -753 -536 -1837 -655 -2692 -297 -355 149 -657 365 -960
688 -341 362 -607 831 -856 1509 -268 730 -486 1631 -776 3217 -45 245 -117
634 -161 865 -43 231 -120 643 -170 915 -51 272 -96 499 -100 504 -5 5 -164
-25 -376 -73 -1664 -368 -3074 -596 -4376 -706 -153 -13 -280 -25 -281 -27 -2
-2 -72 -158 -156 -348 -348 -785 -719 -1571 -1136 -2410 -659 -1325 -869
-1695 -1241 -2188 -224 -297 -400 -498 -723 -826 -574 -583 -1049 -932 -1704
-1251 -381 -186 -743 -317 -1156 -419 -606 -149 -1118 -204 -1820 -193 -635
10 -980 52 -1405 172 -491 138 -999 378 -1390 655 -221 158 -492 404 -665 605
-541 631 -799 1407 -759 2286 43 938 385 1813 973 2494 96 112 322 339 436
439 417 367 892 663 1495 931 176 78 663 261 672 252 2 -2 -38 -19 -89 -37
-154 -54 -431 -176 -627 -275 -798 -403 -1416 -942 -1864 -1626 -258 -395
-409 -761 -478 -1164 -27 -152 -37 -495 -20 -646 111 -973 841 -1893 1916
-2415 470 -228 866 -316 1430 -316 346 0 640 36 973 118 1150 282 2318 1091
3168 2195 307 398 643 900 899 1344 194 336 267 496 808 1765 334 784 355 835
350 843 -2 4 -26 7 -52 7 -26 0 -119 7 -207 15 -807 76 -1480 231 -2073 475
-129 53 -630 289 -929 437 -536 266 -1028 630 -1438 1063 -791 838 -1274 1967
-1399 3271 -109 1149 71 2438 515 3684 678 1902 1891 3623 3466 4916 949 779
2026 1389 3168 1794 1211 428 2652 634 4761 679 266 6 1530 -4 1870 -14z
m7592 -18262 c-3 -8 -6 -5 -6 6 -1 11 2 17 5 13 3 -3 4 -12 1 -19z"/>
<path d="M23720 28580 c-666 -49 -1143 -363 -1529 -1007 -94 -157 -213 -389
-295 -576 -50 -114 -3766 -9559 -3766 -9573 0 -3 775 -3 1723 -1 1825 4 1814
4 2197 53 1531 194 2943 896 4070 2024 1197 1196 1974 2781 2224 4533 138 961
76 1780 -184 2442 -393 1000 -1242 1653 -2522 1940 -419 94 -854 145 -1393
165 -297 11 -369 11 -525 0z"/>
<path d="M17933 28564 c-1520 -184 -3835 -1657 -5494 -3494 -1564 -1733 -2504
-3605 -2738 -5458 -41 -324 -54 -533 -54 -897 -1 -834 112 -1509 358 -2130 59
-150 221 -485 305 -630 552 -960 1393 -1720 2448 -2213 268 -126 432 -182 689
-236 131 -28 423 -72 543 -81 l75 -7 46 114 c26 62 188 453 361 868 1459 3493
4976 12085 5072 12390 20 63 49 171 63 240 25 113 27 146 28 340 0 191 -3 225
-23 305 -77 305 -246 526 -531 695 -152 91 -387 166 -607 195 -140 18 -387 18
-541 -1z"/>
<path d="M19460 17160 c-643 -58 -1251 -326 -1724 -758 -252 -231 -494 -551
-674 -892 -84 -159 -139 -285 -497 -1145 -172 -412 -331 -792 -354 -844 -22
-52 -40 -96 -38 -97 4 -5 490 36 797 66 929 93 1723 210 2724 401 257 49 620
114 805 145 185 31 337 58 339 59 3 2 -447 2438 -469 2540 -16 72 -90 221
-141 282 -89 106 -228 194 -363 228 -74 19 -277 27 -405 15z"/>
</g>
</svg>
